<svg xmlns="http://www.w3.org/2000/svg" version="1.1" width="1024" height="680">
<rect x="0" y="0" width="1024" height="680" fill="#55686a" />
<g transform="scale(4.000000) translate(0.5 0.5)">
<g transform="translate(162.530539 48.099224) rotate(175.111040) scale(110.854425 30.962319)"><ellipse fill="#caedff" fill-opacity="0.501961" cx="0" cy="0" rx="1" ry="1" /></g>
<g transform="translate(206.878067 138.220860) rotate(352.994558) scale(109.281333 45.678552)"><ellipse fill="#040000" fill-opacity="0.501961" cx="0" cy="0" rx="1" ry="1" /></g>
<g transform="translate(13.671814 141.137550) rotate(265.218784) scale(90.362906 29.738918)"><ellipse fill="#040000" fill-opacity="0.501961" cx="0" cy="0" rx="1" ry="1" /></g>
<g transform="translate(95.543996 56.939517) rotate(395.522159) scale(68.898450 24.400923)"><ellipse fill="#afc6da" fill-opacity="0.501961" cx="0" cy="0" rx="1" ry="1" /></g>
<g transform="translate(58.807102 145.473758) rotate(2.430132) scale(244.379248 29.022541)"><ellipse fill="#3f3800" fill-opacity="0.501961" cx="0" cy="0" rx="1" ry="1" /></g>
<g transform="translate(130.513268 12.328941) rotate(371.694475) scale(79.109646 20.487841)"><ellipse fill="#15669c" fill-opacity="0.501961" cx="0" cy="0" rx="1" ry="1" /></g>
<g transform="translate(187.995960 80.799055) rotate(80.151233) scale(13.540078 164.057656)"><ellipse fill="#4786c3" fill-opacity="0.501961" cx="0" cy="0" rx="1" ry="1" /></g>
<g transform="translate(146.493530 55.591303) rotate(-2.863203) scale(85.241593 12.401082)"><ellipse fill="#e0e0db" fill-opacity="0.501961" cx="0" cy="0" rx="1" ry="1" /></g>
<g transform="translate(23.665681 33.059362) rotate(19.401267) scale(80.521781 9.659492)"><ellipse fill="#c7bcb5" fill-opacity="0.501961" cx="0" cy="0" rx="1" ry="1" /></g>
<g transform="translate(233.939452 136.776855) rotate(44.513695) scale(17.777843 48.384617)"><ellipse fill="#000000" fill-opacity="0.501961" cx="0" cy="0" rx="1" ry="1" /></g>
<g transform="translate(61.149348 110.412505) rotate(353.653829) scale(25.698645 7.000751)"><ellipse fill="#e0ceb1" fill-opacity="0.501961" cx="0" cy="0" rx="1" ry="1" /></g>
<g transform="translate(54.420922 76.872150) rotate(131.242403) scale(18.732723 31.504488)"><ellipse fill="#21538d" fill-opacity="0.501961" cx="0" cy="0" rx="1" ry="1" /></g>
<g transform="translate(76.542436 159.126717) rotate(176.308907) scale(33.492507 11.418287)"><ellipse fill="#998849" fill-opacity="0.501961" cx="0" cy="0" rx="1" ry="1" /></g>
<g transform="translate(9.396946 132.847190) rotate(278.409672) scale(83.108987 14.311222)"><ellipse fill="#0b0a00" fill-opacity="0.501961" cx="0" cy="0" rx="1" ry="1" /></g>
<g transform="translate(230.573470 23.540482) rotate(378.541207) scale(48.854709 15.003912)"><ellipse fill="#8e949e" fill-opacity="0.501961" cx="0" cy="0" rx="1" ry="1" /></g>
<g transform="translate(180.610560 77.313978) rotate(151.916089) scale(33.095644 9.282598)"><ellipse fill="#216ba4" fill-opacity="0.501961" cx="0" cy="0" rx="1" ry="1" /></g>
<g transform="translate(29.018695 0.000000) rotate(266.043018) scale(10.239695 66.902701)"><ellipse fill="#003567" fill-opacity="0.501961" cx="0" cy="0" rx="1" ry="1" /></g>
<g transform="translate(185.793398 157.629667) rotate(339.807398) scale(6.506404 26.811903)"><ellipse fill="#8a8845" fill-opacity="0.501961" cx="0" cy="0" rx="1" ry="1" /></g>
<g transform="translate(107.109663 122.757348) rotate(357.135493) scale(53.246454 15.667344)"><ellipse fill="#4b4f41" fill-opacity="0.501961" cx="0" cy="0" rx="1" ry="1" /></g>
<g transform="translate(103.829137 27.142054) rotate(176.483230) scale(42.654319 17.201309)"><ellipse fill="#598eaa" fill-opacity="0.501961" cx="0" cy="0" rx="1" ry="1" /></g>
<g transform="translate(162.430343 59.061870) rotate(282.831598) scale(11.190586 18.585378)"><ellipse fill="#fcf4eb" fill-opacity="0.501961" cx="0" cy="0" rx="1" ry="1" /></g>
<g transform="translate(44.089065 139.945815) rotate(343.948333) scale(6.465807 74.569909)"><ellipse fill="#6b6927" fill-opacity="0.501961" cx="0" cy="0" rx="1" ry="1" /></g>
<g transform="translate(48.779366 21.791551) rotate(171.484837) scale(26.999179 14.424431)"><ellipse fill="#868383" fill-opacity="0.501961" cx="0" cy="0" rx="1" ry="1" /></g>
<g transform="translate(223.167575 85.192376) rotate(345.844996) scale(68.637253 9.643943)"><ellipse fill="#27557d" fill-opacity="0.501961" cx="0" cy="0" rx="1" ry="1" /></g>
<g transform="translate(83.855159 107.286399) rotate(174.534447) scale(51.582044 2.879065)"><ellipse fill="#b7b7b0" fill-opacity="0.501961" cx="0" cy="0" rx="1" ry="1" /></g>
<g transform="translate(220.713873 61.910824) rotate(158.757437) scale(21.895265 4.091233)"><ellipse fill="#e0d0c7" fill-opacity="0.501961" cx="0" cy="0" rx="1" ry="1" /></g>
<g transform="translate(81.813754 144.095767) rotate(301.901157) scale(16.758577 11.950180)"><ellipse fill="#918548" fill-opacity="0.501961" cx="0" cy="0" rx="1" ry="1" /></g>
<g transform="translate(101.319804 74.182432) rotate(34.825746) scale(28.773454 7.858563)"><ellipse fill="#c6d4da" fill-opacity="0.501961" cx="0" cy="0" rx="1" ry="1" /></g>
<g transform="translate(196.132783 37.259850) rotate(80.210085) scale(8.995941 36.760603)"><ellipse fill="#649fbe" fill-opacity="0.501961" cx="0" cy="0" rx="1" ry="1" /></g>
<g transform="translate(70.858154 69.801569) rotate(31.334843) scale(28.174025 2.985897)"><ellipse fill="#3e5470" fill-opacity="0.501961" cx="0" cy="0" rx="1" ry="1" /></g>
<g transform="translate(172.341605 114.514018) rotate(357.692171) scale(31.343600 20.773482)"><ellipse fill="#1f3241" fill-opacity="0.501961" cx="0" cy="0" rx="1" ry="1" /></g>
<g transform="translate(112.796126 44.391826) rotate(135.618172) scale(8.634550 27.749295)"><ellipse fill="#a2b6be" fill-opacity="0.501961" cx="0" cy="0" rx="1" ry="1" /></g>
<g transform="translate(59.490746 134.152296) rotate(188.473597) scale(10.096193 19.131874)"><ellipse fill="#2f2d08" fill-opacity="0.501961" cx="0" cy="0" rx="1" ry="1" /></g>
<g transform="translate(88.570624 118.618482) rotate(155.785816) scale(14.885448 7.390765)"><ellipse fill="#11202f" fill-opacity="0.501961" cx="0" cy="0" rx="1" ry="1" /></g>
<g transform="translate(114.139033 1.239247) rotate(89.690230) scale(7.844853 62.874036)"><ellipse fill="#0a4365" fill-opacity="0.501961" cx="0" cy="0" rx="1" ry="1" /></g>
<g transform="translate(1.520609 32.438279) rotate(202.303179) scale(24.748265 23.286988)"><ellipse fill="#83868d" fill-opacity="0.501961" cx="0" cy="0" rx="1" ry="1" /></g>
<g transform="translate(144.924594 97.558051) rotate(164.213861) scale(19.999291 4.062310)"><ellipse fill="#93acc0" fill-opacity="0.501961" cx="0" cy="0" rx="1" ry="1" /></g>
<g transform="translate(229.734052 112.876551) rotate(317.568742) scale(46.550797 13.490427)"><ellipse fill="#1c2826" fill-opacity="0.501961" cx="0" cy="0" rx="1" ry="1" /></g>
<g transform="translate(183.736949 82.933327) rotate(175.282061) scale(46.833822 9.980724)"><ellipse fill="#317ab1" fill-opacity="0.501961" cx="0" cy="0" rx="1" ry="1" /></g>
<g transform="translate(72.957199 90.219263) rotate(277.234385) scale(14.007515 39.002986)"><ellipse fill="#326894" fill-opacity="0.501961" cx="0" cy="0" rx="1" ry="1" /></g>
<g transform="translate(149.339604 153.846147) rotate(237.817698) scale(19.853072 8.099168)"><ellipse fill="#090c05" fill-opacity="0.501961" cx="0" cy="0" rx="1" ry="1" /></g>
<g transform="translate(255.000000 54.843518) rotate(66.450508) scale(3.514372 22.403472)"><ellipse fill="#3d5475" fill-opacity="0.501961" cx="0" cy="0" rx="1" ry="1" /></g>
<g transform="translate(247.382339 137.722628) rotate(248.774559) scale(12.859311 29.527007)"><ellipse fill="#000000" fill-opacity="0.501961" cx="0" cy="0" rx="1" ry="1" /></g>
<g transform="translate(1.088105 155.724532) rotate(183.753110) scale(5.340513 106.801703)"><ellipse fill="#000500" fill-opacity="0.501961" cx="0" cy="0" rx="1" ry="1" /></g>
<g transform="translate(158.588688 21.377099) rotate(176.101962) scale(89.992406 3.183163)"><ellipse fill="#3a7395" fill-opacity="0.501961" cx="0" cy="0" rx="1" ry="1" /></g>
<g transform="translate(124.302958 114.238886) rotate(10.814142) scale(21.332560 8.770908)"><ellipse fill="#696765" fill-opacity="0.501961" cx="0" cy="0" rx="1" ry="1" /></g>
<g transform="translate(242.362733 20.982124) rotate(-0.862545) scale(32.100433 4.359898)"><ellipse fill="#bfafa5" fill-opacity="0.501961" cx="0" cy="0" rx="1" ry="1" /></g>
<g transform="translate(197.649738 149.282435) rotate(37.688405) scale(16.521980 2.611204)"><ellipse fill="#74753a" fill-opacity="0.501961" cx="0" cy="0" rx="1" ry="1" /></g>
<g transform="translate(54.818561 109.477084) rotate(95.067790) scale(5.510140 16.456415)"><ellipse fill="#c5c3bc" fill-opacity="0.501961" cx="0" cy="0" rx="1" ry="1" /></g>
<g transform="translate(31.269399 41.932332) rotate(190.945389) scale(8.483632 12.678032)"><ellipse fill="#989fa7" fill-opacity="0.501961" cx="0" cy="0" rx="1" ry="1" /></g>
<g transform="translate(30.146096 22.713505) rotate(355.169943) scale(12.291600 5.843833)"><ellipse fill="#484c53" fill-opacity="0.501961" cx="0" cy="0" rx="1" ry="1" /></g>
<g transform="translate(118.793986 138.223628) rotate(371.341076) scale(3.905635 11.950965)"><ellipse fill="#797849" fill-opacity="0.501961" cx="0" cy="0" rx="1" ry="1" /></g>
<g transform="translate(126.105078 77.767150) rotate(198.583382) scale(22.290149 8.287533)"><ellipse fill="#70a4c7" fill-opacity="0.501961" cx="0" cy="0" rx="1" ry="1" /></g>
<g transform="translate(137.516955 154.298793) rotate(68.027591) scale(22.486399 4.182888)"><ellipse fill="#656a1c" fill-opacity="0.501961" cx="0" cy="0" rx="1" ry="1" /></g>
<g transform="translate(206.389097 97.334121) rotate(355.432258) scale(39.498348 7.000096)"><ellipse fill="#454a47" fill-opacity="0.501961" cx="0" cy="0" rx="1" ry="1" /></g>
<g transform="translate(25.573382 126.113323) rotate(350.138727) scale(12.724922 32.118682)"><ellipse fill="#434217" fill-opacity="0.501961" cx="0" cy="0" rx="1" ry="1" /></g>
<g transform="translate(61.036973 14.196544) rotate(376.159176) scale(11.840822 5.554683)"><ellipse fill="#afa79d" fill-opacity="0.501961" cx="0" cy="0" rx="1" ry="1" /></g>
<g transform="translate(37.962619 101.903514) rotate(288.314460) scale(3.856085 10.049586)"><ellipse fill="#6d91af" fill-opacity="0.501961" cx="0" cy="0" rx="1" ry="1" /></g>
<g transform="translate(114.805722 169.000000) rotate(257.341960) scale(6.469344 15.151376)"><ellipse fill="#040800" fill-opacity="0.501961" cx="0" cy="0" rx="1" ry="1" /></g>
<g transform="translate(42.943598 65.980606) rotate(14.149272) scale(19.314597 3.812577)"><ellipse fill="#787a80" fill-opacity="0.501961" cx="0" cy="0" rx="1" ry="1" /></g>
<g transform="translate(203.476838 12.890677) rotate(347.511439) scale(18.509998 3.999567)"><ellipse fill="#9f9e9c" fill-opacity="0.501961" cx="0" cy="0" rx="1" ry="1" /></g>
<g transform="translate(203.289091 71.278673) rotate(200.316379) scale(9.076509 13.599989)"><ellipse fill="#5c7c9f" fill-opacity="0.501961" cx="0" cy="0" rx="1" ry="1" /></g>
<g transform="translate(174.301811 43.023995) rotate(11.378172) scale(37.807943 6.700200)"><ellipse fill="#96bdce" fill-opacity="0.501961" cx="0" cy="0" rx="1" ry="1" /></g>
<g transform="translate(88.072431 65.864589) rotate(120.540853) scale(9.625944 17.021224)"><ellipse fill="#dbdad3" fill-opacity="0.501961" cx="0" cy="0" rx="1" ry="1" /></g>
<g transform="translate(95.501753 87.607655) rotate(288.952341) scale(4.695306 49.123365)"><ellipse fill="#527492" fill-opacity="0.501961" cx="0" cy="0" rx="1" ry="1" /></g>
<g transform="translate(22.361870 71.931557) rotate(358.373727) scale(6.329902 23.741008)"><ellipse fill="#2c2c02" fill-opacity="0.501961" cx="0" cy="0" rx="1" ry="1" /></g>
<g transform="translate(2.421856 154.955425) rotate(263.401364) scale(8.776197 26.539777)"><ellipse fill="#000200" fill-opacity="0.501961" cx="0" cy="0" rx="1" ry="1" /></g>
<g transform="translate(100.715207 30.386546) rotate(300.038122) scale(4.259639 6.921248)"><ellipse fill="#dcc8b9" fill-opacity="0.501961" cx="0" cy="0" rx="1" ry="1" /></g>
<g transform="translate(228.289753 41.553426) rotate(175.543369) scale(19.846303 3.732294)"><ellipse fill="#c8c6c4" fill-opacity="0.501961" cx="0" cy="0" rx="1" ry="1" /></g>
<g transform="translate(217.468868 129.790478) rotate(157.631065) scale(3.203910 9.442610)"><ellipse fill="#636731" fill-opacity="0.501961" cx="0" cy="0" rx="1" ry="1" /></g>
<g transform="translate(71.719264 31.624042) rotate(267.487378) scale(4.237058 7.648785)"><ellipse fill="#c4b6ac" fill-opacity="0.501961" cx="0" cy="0" rx="1" ry="1" /></g>
<g transform="translate(85.512091 23.270208) rotate(144.980819) scale(7.398340 10.183550)"><ellipse fill="#226e99" fill-opacity="0.501961" cx="0" cy="0" rx="1" ry="1" /></g>
<g transform="translate(82.829093 137.465736) rotate(120.723494) scale(5.205765 19.946278)"><ellipse fill="#807a3c" fill-opacity="0.501961" cx="0" cy="0" rx="1" ry="1" /></g>
<g transform="translate(255.000000 163.200099) rotate(337.680881) scale(3.853342 20.284372)"><ellipse fill="#67671b" fill-opacity="0.501961" cx="0" cy="0" rx="1" ry="1" /></g>
<g transform="translate(176.853559 58.473159) rotate(355.929463) scale(28.980930 6.626294)"><ellipse fill="#e1e2de" fill-opacity="0.501961" cx="0" cy="0" rx="1" ry="1" /></g>
<g transform="translate(244.771323 79.156573) rotate(-16.739024) scale(26.132700 6.583568)"><ellipse fill="#2161a0" fill-opacity="0.501961" cx="0" cy="0" rx="1" ry="1" /></g>
<g transform="translate(76.304338 118.339314) rotate(264.111597) scale(6.037132 16.638899)"><ellipse fill="#2a3740" fill-opacity="0.501961" cx="0" cy="0" rx="1" ry="1" /></g>
<g transform="translate(221.462133 31.423723) rotate(269.757146) scale(4.131372 27.001422)"><ellipse fill="#5e839c" fill-opacity="0.501961" cx="0" cy="0" rx="1" ry="1" /></g>
<g transform="translate(245.661444 169.000000) rotate(334.075964) scale(2.689104 45.495979)"><ellipse fill="#000000" fill-opacity="0.501961" cx="0" cy="0" rx="1" ry="1" /></g>
<g transform="translate(32.402171 0.000000) rotate(248.797100) scale(8.347127 30.968198)"><ellipse fill="#0d476c" fill-opacity="0.501961" cx="0" cy="0" rx="1" ry="1" /></g>
<g transform="translate(208.829958 130.405578) rotate(274.635802) scale(21.136689 3.756815)"><ellipse fill="#080d00" fill-opacity="0.501961" cx="0" cy="0" rx="1" ry="1" /></g>
<g transform="translate(111.297019 112.622126) rotate(185.426684) scale(5.185172 4.293901)"><ellipse fill="#ac9a7b" fill-opacity="0.501961" cx="0" cy="0" rx="1" ry="1" /></g>
<g transform="translate(188.335394 111.296792) rotate(261.268174) scale(7.882509 46.112216)"><ellipse fill="#11283b" fill-opacity="0.501961" cx="0" cy="0" rx="1" ry="1" /></g>
<g transform="translate(50.529126 89.858532) rotate(151.659627) scale(16.866549 6.681805)"><ellipse fill="#155588" fill-opacity="0.501961" cx="0" cy="0" rx="1" ry="1" /></g>
<g transform="translate(136.708672 106.691128) rotate(86.668355) scale(2.515219 39.021830)"><ellipse fill="#373d45" fill-opacity="0.501961" cx="0" cy="0" rx="1" ry="1" /></g>
<g transform="translate(96.298228 156.939504) rotate(169.676204) scale(16.500679 3.695948)"><ellipse fill="#8d8b50" fill-opacity="0.501961" cx="0" cy="0" rx="1" ry="1" /></g>
<g transform="translate(176.387270 79.574679) rotate(79.878421) scale(10.680213 24.238941)"><ellipse fill="#2d71a1" fill-opacity="0.501961" cx="0" cy="0" rx="1" ry="1" /></g>
<g transform="translate(99.865918 149.862648) rotate(190.055061) scale(31.851023 1.872111)"><ellipse fill="#31341a" fill-opacity="0.501961" cx="0" cy="0" rx="1" ry="1" /></g>
<g transform="translate(71.430803 49.182142) rotate(8.739065) scale(33.198755 7.860100)"><ellipse fill="#bdc1bd" fill-opacity="0.501961" cx="0" cy="0" rx="1" ry="1" /></g>
<g transform="translate(104.453361 13.607440) rotate(88.769878) scale(5.516950 17.844074)"><ellipse fill="#6b7984" fill-opacity="0.501961" cx="0" cy="0" rx="1" ry="1" /></g>
<g transform="translate(195.337814 1.131860) rotate(243.858843) scale(6.833498 25.051784)"><ellipse fill="#6f7a85" fill-opacity="0.501961" cx="0" cy="0" rx="1" ry="1" /></g>
<g transform="translate(89.502792 105.238240) rotate(267.399632) scale(1.627826 29.752019)"><ellipse fill="#abbcc5" fill-opacity="0.501961" cx="0" cy="0" rx="1" ry="1" /></g>
<g transform="translate(192.380884 162.201621) rotate(311.781900) scale(11.627124 3.905354)"><ellipse fill="#7b7b30" fill-opacity="0.501961" cx="0" cy="0" rx="1" ry="1" /></g>
<g transform="translate(51.689781 136.155454) rotate(189.699844) scale(2.926938 11.770250)"><ellipse fill="#111406" fill-opacity="0.501961" cx="0" cy="0" rx="1" ry="1" /></g>
<g transform="translate(168.523066 159.314853) rotate(176.702308) scale(2.147029 23.056187)"><ellipse fill="#030700" fill-opacity="0.501961" cx="0" cy="0" rx="1" ry="1" /></g>
<g transform="translate(54.979796 153.416387) rotate(282.640576) scale(3.922292 9.328321)"><ellipse fill="#8d864a" fill-opacity="0.501961" cx="0" cy="0" rx="1" ry="1" /></g>
<g transform="translate(46.003376 58.596612) rotate(190.017896) scale(18.230555 4.275263)"><ellipse fill="#334963" fill-opacity="0.501961" cx="0" cy="0" rx="1" ry="1" /></g>
<g transform="translate(40.789020 145.141704) rotate(349.153345) scale(5.041429 39.676845)"><ellipse fill="#5c5d20" fill-opacity="0.501961" cx="0" cy="0" rx="1" ry="1" /></g>
<g transform="translate(103.540074 146.699051) rotate(23.242209) scale(4.586252 6.138572)"><ellipse fill="#050c09" fill-opacity="0.501961" cx="0" cy="0" rx="1" ry="1" /></g>
<g transform="translate(188.963438 139.322102) rotate(18.108510) scale(3.271828 12.155508)"><ellipse fill="#67694d" fill-opacity="0.501961" cx="0" cy="0" rx="1" ry="1" /></g>
<g transform="translate(255.000000 46.757988) rotate(175.458877) scale(42.514078 3.735158)"><ellipse fill="#8a909b" fill-opacity="0.501961" cx="0" cy="0" rx="1" ry="1" /></g>
<g transform="translate(152.016461 14.902767) rotate(6.259443) scale(30.241022 6.514164)"><ellipse fill="#23678e" fill-opacity="0.501961" cx="0" cy="0" rx="1" ry="1" /></g>
<g transform="translate(107.593599 83.100309) rotate(195.464784) scale(19.572998 4.764423)"><ellipse fill="#8caecb" fill-opacity="0.501961" cx="0" cy="0" rx="1" ry="1" /></g>
<g transform="translate(0.121688 61.638931) rotate(17.056379) scale(4.161529 8.566850)"><ellipse fill="#255c97" fill-opacity="0.501961" cx="0" cy="0" rx="1" ry="1" /></g>
<g transform="translate(219.857566 161.240876) rotate(17.142120) scale(5.456877 49.772080)"><ellipse fill="#000500" fill-opacity="0.501961" cx="0" cy="0" rx="1" ry="1" /></g>
<g transform="translate(53.037502 14.937931) rotate(281.943169) scale(3.481291 23.424508)"><ellipse fill="#98948e" fill-opacity="0.501961" cx="0" cy="0" rx="1" ry="1" /></g>
<g transform="translate(129.219437 46.880257) rotate(162.426434) scale(31.313117 5.738634)"><ellipse fill="#b0bbbf" fill-opacity="0.501961" cx="0" cy="0" rx="1" ry="1" /></g>
<g transform="translate(103.507095 94.867515) rotate(99.680397) scale(7.573334 27.573300)"><ellipse fill="#467291" fill-opacity="0.501961" cx="0" cy="0" rx="1" ry="1" /></g>
<g transform="translate(241.614699 115.237537) rotate(9.184835) scale(3.979367 13.792054)"><ellipse fill="#29394a" fill-opacity="0.501961" cx="0" cy="0" rx="1" ry="1" /></g>
<g transform="translate(162.831861 138.332611) rotate(268.281657) scale(15.232125 2.971768)"><ellipse fill="#585621" fill-opacity="0.501961" cx="0" cy="0" rx="1" ry="1" /></g>
<g transform="translate(202.658139 74.800417) rotate(93.824327) scale(3.699197 2.660696)"><ellipse fill="#b1b6c0" fill-opacity="0.501961" cx="0" cy="0" rx="1" ry="1" /></g>
<g transform="translate(57.496965 30.976934) rotate(138.654588) scale(5.644355 6.332147)"><ellipse fill="#4f83a2" fill-opacity="0.501961" cx="0" cy="0" rx="1" ry="1" /></g>
<g transform="translate(255.000000 66.836196) rotate(66.448501) scale(1.337127 4.216704)"><ellipse fill="#fbe9df" fill-opacity="0.501961" cx="0" cy="0" rx="1" ry="1" /></g>
<g transform="translate(136.245063 116.309834) rotate(20.631248) scale(4.103818 10.637727)"><ellipse fill="#72726a" fill-opacity="0.501961" cx="0" cy="0" rx="1" ry="1" /></g>
<g transform="translate(65.231853 143.904978) rotate(81.201687) scale(13.511826 4.504442)"><ellipse fill="#363314" fill-opacity="0.501961" cx="0" cy="0" rx="1" ry="1" /></g>
<g transform="translate(217.920350 61.687228) rotate(25.214703) scale(6.373610 3.520572)"><ellipse fill="#ede8df" fill-opacity="0.501961" cx="0" cy="0" rx="1" ry="1" /></g>
<g transform="translate(191.435992 149.862294) rotate(22.350902) scale(1.545033 6.183970)"><ellipse fill="#000201" fill-opacity="0.501961" cx="0" cy="0" rx="1" ry="1" /></g>
<g transform="translate(58.374094 98.121747) rotate(166.146096) scale(7.619812 5.501415)"><ellipse fill="#6e8196" fill-opacity="0.501961" cx="0" cy="0" rx="1" ry="1" /></g>
<g transform="translate(132.652972 133.206718) rotate(88.774989) scale(13.471337 2.613936)"><ellipse fill="#73743e" fill-opacity="0.501961" cx="0" cy="0" rx="1" ry="1" /></g>
<g transform="translate(122.247312 144.412991) rotate(294.416509) scale(21.586464 1.700383)"><ellipse fill="#131b03" fill-opacity="0.501961" cx="0" cy="0" rx="1" ry="1" /></g>
<g transform="translate(127.524782 36.782525) rotate(172.918836) scale(45.794689 3.088160)"><ellipse fill="#68a7c4" fill-opacity="0.501961" cx="0" cy="0" rx="1" ry="1" /></g>
<g transform="translate(110.573704 111.272210) rotate(165.984256) scale(7.360103 2.269733)"><ellipse fill="#ae9e81" fill-opacity="0.501961" cx="0" cy="0" rx="1" ry="1" /></g>
<g transform="translate(15.855986 19.451872) rotate(171.158474) scale(3.742705 5.096874)"><ellipse fill="#afa69c" fill-opacity="0.501961" cx="0" cy="0" rx="1" ry="1" /></g>
<g transform="translate(18.404269 73.622741) rotate(150.149535) scale(13.685057 10.323139)"><ellipse fill="#323511" fill-opacity="0.501961" cx="0" cy="0" rx="1" ry="1" /></g>
<g transform="translate(144.880895 95.498956) rotate(188.571341) scale(12.709733 2.655755)"><ellipse fill="#a3b8c8" fill-opacity="0.501961" cx="0" cy="0" rx="1" ry="1" /></g>
<g transform="translate(16.232220 118.033884) rotate(278.116347) scale(12.245181 18.513918)"><ellipse fill="#282915" fill-opacity="0.501961" cx="0" cy="0" rx="1" ry="1" /></g>
<g transform="translate(111.777565 133.921625) rotate(117.345395) scale(1.709409 10.601008)"><ellipse fill="#85823b" fill-opacity="0.501961" cx="0" cy="0" rx="1" ry="1" /></g>
<g transform="translate(0.000000 47.375295) rotate(102.119971) scale(4.766952 9.000760)"><ellipse fill="#8798a9" fill-opacity="0.501961" cx="0" cy="0" rx="1" ry="1" /></g>
<g transform="translate(10.784702 61.410194) rotate(83.828788) scale(12.329663 2.988658)"><ellipse fill="#2d2f03" fill-opacity="0.501961" cx="0" cy="0" rx="1" ry="1" /></g>
<g transform="translate(158.116668 88.964492) rotate(358.662050) scale(30.283886 3.828307)"><ellipse fill="#2b7aae" fill-opacity="0.501961" cx="0" cy="0" rx="1" ry="1" /></g>
<g transform="translate(105.389586 139.208955) rotate(73.675402) scale(14.086599 2.689006)"><ellipse fill="#1a1f08" fill-opacity="0.501961" cx="0" cy="0" rx="1" ry="1" /></g>
<g transform="translate(0.000000 102.888787) rotate(138.073847) scale(23.454255 7.109008)"><ellipse fill="#030400" fill-opacity="0.501961" cx="0" cy="0" rx="1" ry="1" /></g>
<g transform="translate(1.842240 139.081957) rotate(272.220700) scale(10.135828 14.014078)"><ellipse fill="#000000" fill-opacity="0.501961" cx="0" cy="0" rx="1" ry="1" /></g>
<g transform="translate(42.195917 21.438667) rotate(144.661121) scale(5.325512 8.012596)"><ellipse fill="#686765" fill-opacity="0.501961" cx="0" cy="0" rx="1" ry="1" /></g>
<g transform="translate(14.838440 54.981856) rotate(264.036935) scale(7.695706 2.566039)"><ellipse fill="#6d8287" fill-opacity="0.501961" cx="0" cy="0" rx="1" ry="1" /></g>
<g transform="translate(212.111055 151.289525) rotate(208.086050) scale(2.568825 19.097380)"><ellipse fill="#3d4119" fill-opacity="0.501961" cx="0" cy="0" rx="1" ry="1" /></g>
<g transform="translate(234.916692 54.693546) rotate(174.734644) scale(8.889661 5.133011)"><ellipse fill="#c8c8c6" fill-opacity="0.501961" cx="0" cy="0" rx="1" ry="1" /></g>
<g transform="translate(209.589443 16.621294) rotate(357.310161) scale(8.263933 2.585884)"><ellipse fill="#305d7d" fill-opacity="0.501961" cx="0" cy="0" rx="1" ry="1" /></g>
<g transform="translate(255.000000 126.552617) rotate(266.579527) scale(26.358954 10.016965)"><ellipse fill="#090c00" fill-opacity="0.501961" cx="0" cy="0" rx="1" ry="1" /></g>
<g transform="translate(94.795301 14.079541) rotate(204.714379) scale(3.173424 5.059863)"><ellipse fill="#9f978f" fill-opacity="0.501961" cx="0" cy="0" rx="1" ry="1" /></g>
<g transform="translate(183.987840 4.350049) rotate(180.903567) scale(65.771202 1.000000)"><ellipse fill="#2e5774" fill-opacity="0.501961" cx="0" cy="0" rx="1" ry="1" /></g>
<g transform="translate(61.347779 50.623857) rotate(77.373787) scale(2.401974 10.701486)"><ellipse fill="#8d99a0" fill-opacity="0.501961" cx="0" cy="0" rx="1" ry="1" /></g>
<g transform="translate(234.046216 161.561141) rotate(131.448485) scale(5.666323 6.471634)"><ellipse fill="#494623" fill-opacity="0.501961" cx="0" cy="0" rx="1" ry="1" /></g>
<g transform="translate(54.205092 158.778317) rotate(108.090796) scale(4.330930 7.793486)"><ellipse fill="#4b4330" fill-opacity="0.501961" cx="0" cy="0" rx="1" ry="1" /></g>
<g transform="translate(255.000000 39.140257) rotate(201.127877) scale(12.735773 5.787536)"><ellipse fill="#64859b" fill-opacity="0.501961" cx="0" cy="0" rx="1" ry="1" /></g>
<g transform="translate(186.992893 71.385667) rotate(236.616851) scale(8.251770 8.685871)"><ellipse fill="#43749c" fill-opacity="0.501961" cx="0" cy="0" rx="1" ry="1" /></g>
<g transform="translate(22.380092 11.040759) rotate(253.687023) scale(7.050898 5.504977)"><ellipse fill="#164e78" fill-opacity="0.501961" cx="0" cy="0" rx="1" ry="1" /></g>
<g transform="translate(227.070961 10.124687) rotate(350.477251) scale(9.280286 2.853788)"><ellipse fill="#9a999b" fill-opacity="0.501961" cx="0" cy="0" rx="1" ry="1" /></g>
<g transform="translate(126.622243 119.170764) rotate(295.307926) scale(15.489449 3.369322)"><ellipse fill="#303f44" fill-opacity="0.501961" cx="0" cy="0" rx="1" ry="1" /></g>
<g transform="translate(155.757721 56.514117) rotate(59.678538) scale(17.798994 4.313028)"><ellipse fill="#e9e5de" fill-opacity="0.501961" cx="0" cy="0" rx="1" ry="1" /></g>
<g transform="translate(55.366042 112.822801) rotate(51.818585) scale(2.129134 11.317890)"><ellipse fill="#b6b3a9" fill-opacity="0.501961" cx="0" cy="0" rx="1" ry="1" /></g>
<g transform="translate(246.386296 24.434043) rotate(214.202419) scale(12.779349 4.505285)"><ellipse fill="#bab1a8" fill-opacity="0.501961" cx="0" cy="0" rx="1" ry="1" /></g>
<g transform="translate(95.226260 168.540346) rotate(201.622543) scale(9.369252 6.482970)"><ellipse fill="#55502c" fill-opacity="0.501961" cx="0" cy="0" rx="1" ry="1" /></g>
<g transform="translate(181.818813 141.101376) rotate(15.915952) scale(10.566504 2.274540)"><ellipse fill="#848149" fill-opacity="0.501961" cx="0" cy="0" rx="1" ry="1" /></g>
<g transform="translate(0.000000 42.544546) rotate(90.502853) scale(3.001454 19.956595)"><ellipse fill="#405e7d" fill-opacity="0.501961" cx="0" cy="0" rx="1" ry="1" /></g>
<g transform="translate(20.307698 63.351653) rotate(184.388453) scale(2.962808 14.705927)"><ellipse fill="#101204" fill-opacity="0.501961" cx="0" cy="0" rx="1" ry="1" /></g>
<g transform="translate(45.041818 132.380951) rotate(343.975139) scale(5.585270 8.119232)"><ellipse fill="#767436" fill-opacity="0.501961" cx="0" cy="0" rx="1" ry="1" /></g>
<g transform="translate(249.822709 159.340514) rotate(82.837685) scale(18.388841 1.000000)"><ellipse fill="#707221" fill-opacity="0.501961" cx="0" cy="0" rx="1" ry="1" /></g>
<g transform="translate(58.239823 107.561548) rotate(5.241921) scale(24.002069 3.021049)"><ellipse fill="#b6b8b5" fill-opacity="0.501961" cx="0" cy="0" rx="1" ry="1" /></g>
<g transform="translate(56.521366 61.272669) rotate(245.019441) scale(8.301960 2.446904)"><ellipse fill="#274765" fill-opacity="0.501961" cx="0" cy="0" rx="1" ry="1" /></g>
<g transform="translate(75.044544 100.599697) rotate(272.219477) scale(3.338116 14.697856)"><ellipse fill="#1d5985" fill-opacity="0.501961" cx="0" cy="0" rx="1" ry="1" /></g>
<g transform="translate(189.413070 169.000000) rotate(143.905081) scale(6.966085 12.245727)"><ellipse fill="#7c793a" fill-opacity="0.501961" cx="0" cy="0" rx="1" ry="1" /></g>
<g transform="translate(74.702894 109.172843) rotate(352.707216) scale(42.798641 1.000000)"><ellipse fill="#b9b6a3" fill-opacity="0.501961" cx="0" cy="0" rx="1" ry="1" /></g>
<g transform="translate(121.206119 49.108665) rotate(4.713063) scale(53.425462 1.413332)"><ellipse fill="#d4d5d1" fill-opacity="0.501961" cx="0" cy="0" rx="1" ry="1" /></g>
<g transform="translate(237.924166 61.475208) rotate(68.079580) scale(2.116168 24.509895)"><ellipse fill="#5d7691" fill-opacity="0.501961" cx="0" cy="0" rx="1" ry="1" /></g>
<g transform="translate(213.819044 121.470158) rotate(173.520696) scale(1.721280 14.809560)"><ellipse fill="#555219" fill-opacity="0.501961" cx="0" cy="0" rx="1" ry="1" /></g>
<g transform="translate(95.869257 119.230683) rotate(21.879473) scale(8.170895 10.544800)"><ellipse fill="#22313f" fill-opacity="0.501961" cx="0" cy="0" rx="1" ry="1" /></g>
<g transform="translate(78.470338 86.663274) rotate(298.465401) scale(1.000000 5.964878)"><ellipse fill="#9fa1a9" fill-opacity="0.501961" cx="0" cy="0" rx="1" ry="1" /></g>
<g transform="translate(79.793855 0.000000) rotate(33.780110) scale(16.831936 12.124793)"><ellipse fill="#164e6e" fill-opacity="0.501961" cx="0" cy="0" rx="1" ry="1" /></g>
<g transform="translate(45.001723 75.898701) rotate(172.452105) scale(2.518013 26.363462)"><ellipse fill="#1e4f7b" fill-opacity="0.501961" cx="0" cy="0" rx="1" ry="1" /></g>
<g transform="translate(51.803151 13.167883) rotate(314.530942) scale(6.736855 6.601999)"><ellipse fill="#a29e96" fill-opacity="0.501961" cx="0" cy="0" rx="1" ry="1" /></g>
<g transform="translate(74.283646 21.325572) rotate(31.201083) scale(4.910029 9.468788)"><ellipse fill="#55788f" fill-opacity="0.501961" cx="0" cy="0" rx="1" ry="1" /></g>
<g transform="translate(63.769926 11.773463) rotate(14.671515) scale(3.527784 5.381076)"><ellipse fill="#a7a49e" fill-opacity="0.501961" cx="0" cy="0" rx="1" ry="1" /></g>
<g transform="translate(37.432430 72.947707) rotate(40.269107) scale(1.866810 5.100199)"><ellipse fill="#7f889b" fill-opacity="0.501961" cx="0" cy="0" rx="1" ry="1" /></g>
<g transform="translate(223.163809 87.088248) rotate(263.965645) scale(2.625136 18.640863)"><ellipse fill="#3676ad" fill-opacity="0.501961" cx="0" cy="0" rx="1" ry="1" /></g>
<g transform="translate(32.151761 50.708109) rotate(157.027661) scale(6.445561 1.000000)"><ellipse fill="#bababe" fill-opacity="0.501961" cx="0" cy="0" rx="1" ry="1" /></g>
<g transform="translate(255.632303 90.612290) rotate(355.438079) scale(29.603320 5.013247)"><ellipse fill="#393d33" fill-opacity="0.501961" cx="0" cy="0" rx="1" ry="1" /></g>
<g transform="translate(23.839561 142.346723) rotate(159.497531) scale(8.958091 3.731858)"><ellipse fill="#53571e" fill-opacity="0.501961" cx="0" cy="0" rx="1" ry="1" /></g>
<g transform="translate(135.122808 64.481731) rotate(21.834084) scale(24.584309 7.483545)"><ellipse fill="#a1bac8" fill-opacity="0.501961" cx="0" cy="0" rx="1" ry="1" /></g>
<g transform="translate(220.327299 69.824168) rotate(64.420212) scale(4.461448 2.515076)"><ellipse fill="#9facbc" fill-opacity="0.501961" cx="0" cy="0" rx="1" ry="1" /></g>
<g transform="translate(98.814469 68.512943) rotate(324.413012) scale(15.055034 5.893485)"><ellipse fill="#d9dad7" fill-opacity="0.501961" cx="0" cy="0" rx="1" ry="1" /></g>
<g transform="translate(206.474059 62.146038) rotate(92.981097) scale(4.053241 4.084610)"><ellipse fill="#477295" fill-opacity="0.501961" cx="0" cy="0" rx="1" ry="1" /></g>
<g transform="translate(194.569928 119.226214) rotate(315.324225) scale(10.649259 15.605462)"><ellipse fill="#15293b" fill-opacity="0.501961" cx="0" cy="0" rx="1" ry="1" /></g>
<g transform="translate(33.542420 65.209477) rotate(117.132491) scale(2.761699 9.726780)"><ellipse fill="#847e7a" fill-opacity="0.501961" cx="0" cy="0" rx="1" ry="1" /></g>
<g transform="translate(155.775779 158.476825) rotate(184.854754) scale(5.016672 18.540032)"><ellipse fill="#12130b" fill-opacity="0.501961" cx="0" cy="0" rx="1" ry="1" /></g>
<g transform="translate(104.346158 31.781971) rotate(296.204674) scale(3.442134 10.118257)"><ellipse fill="#c6c1ba" fill-opacity="0.501961" cx="0" cy="0" rx="1" ry="1" /></g>
<g transform="translate(124.618722 149.216955) rotate(151.311534) scale(8.504798 2.779621)"><ellipse fill="#0b0d03" fill-opacity="0.501961" cx="0" cy="0" rx="1" ry="1" /></g>
<g transform="translate(187.367175 36.523024) rotate(270.460286) scale(5.534217 29.676716)"><ellipse fill="#67a0bc" fill-opacity="0.501961" cx="0" cy="0" rx="1" ry="1" /></g>
<g transform="translate(207.816124 140.318495) rotate(227.806282) scale(3.716933 11.090143)"><ellipse fill="#0b0d01" fill-opacity="0.501961" cx="0" cy="0" rx="1" ry="1" /></g>
<g transform="translate(170.474110 22.787916) rotate(182.320757) scale(32.774025 2.910887)"><ellipse fill="#387a9e" fill-opacity="0.501961" cx="0" cy="0" rx="1" ry="1" /></g>
<g transform="translate(180.679814 147.182684) rotate(95.871249) scale(4.626119 1.000000)"><ellipse fill="#0d100e" fill-opacity="0.501961" cx="0" cy="0" rx="1" ry="1" /></g>
<g transform="translate(72.861952 128.021315) rotate(178.349819) scale(4.680350 3.293359)"><ellipse fill="#8e8a4a" fill-opacity="0.501961" cx="0" cy="0" rx="1" ry="1" /></g>
<g transform="translate(14.432197 69.598325) rotate(299.843505) scale(1.000000 3.863535)"><ellipse fill="#47647d" fill-opacity="0.501961" cx="0" cy="0" rx="1" ry="1" /></g>
<g transform="translate(87.753697 31.601016) rotate(215.421888) scale(6.226592 10.447509)"><ellipse fill="#538fad" fill-opacity="0.501961" cx="0" cy="0" rx="1" ry="1" /></g>
<g transform="translate(156.580982 93.822892) rotate(178.664672) scale(3.521350 3.089546)"><ellipse fill="#95b4cd" fill-opacity="0.501961" cx="0" cy="0" rx="1" ry="1" /></g>
<g transform="translate(119.223947 74.609934) rotate(20.282935) scale(11.100847 3.401317)"><ellipse fill="#649abe" fill-opacity="0.501961" cx="0" cy="0" rx="1" ry="1" /></g>
<g transform="translate(89.189082 132.042363) rotate(260.630792) scale(1.000000 7.910448)"><ellipse fill="#a09b4c" fill-opacity="0.501961" cx="0" cy="0" rx="1" ry="1" /></g>
<g transform="translate(247.976007 0.000000) rotate(300.641883) scale(14.812849 24.015975)"><ellipse fill="#4b6382" fill-opacity="0.501961" cx="0" cy="0" rx="1" ry="1" /></g>
<g transform="translate(22.011652 25.043701) rotate(184.094243) scale(6.550369 2.074759)"><ellipse fill="#454e55" fill-opacity="0.501961" cx="0" cy="0" rx="1" ry="1" /></g>
<g transform="translate(0.000000 18.686158) rotate(126.983328) scale(9.172570 10.211662)"><ellipse fill="#857e76" fill-opacity="0.501961" cx="0" cy="0" rx="1" ry="1" /></g>
<g transform="translate(177.860483 145.323231) rotate(343.766696) scale(1.000000 17.967952)"><ellipse fill="#7c7645" fill-opacity="0.501961" cx="0" cy="0" rx="1" ry="1" /></g>
<g transform="translate(13.679642 123.754949) rotate(357.943876) scale(6.317124 2.577436)"><ellipse fill="#4e5020" fill-opacity="0.501961" cx="0" cy="0" rx="1" ry="1" /></g>
<g transform="translate(56.326570 89.141740) rotate(179.466826) scale(19.037876 4.903780)"><ellipse fill="#155686" fill-opacity="0.501961" cx="0" cy="0" rx="1" ry="1" /></g>
<g transform="translate(134.102071 158.572108) rotate(106.368689) scale(2.013730 14.439093)"><ellipse fill="#5d611c" fill-opacity="0.501961" cx="0" cy="0" rx="1" ry="1" /></g>
<g transform="translate(29.128485 102.555512) rotate(39.357123) scale(12.189676 1.991851)"><ellipse fill="#5e5818" fill-opacity="0.501961" cx="0" cy="0" rx="1" ry="1" /></g>
<g transform="translate(54.201983 69.995179) rotate(328.039605) scale(3.025902 9.223332)"><ellipse fill="#717f93" fill-opacity="0.501961" cx="0" cy="0" rx="1" ry="1" /></g>
<g transform="translate(243.670860 154.531345) rotate(229.705899) scale(9.606352 1.326787)"><ellipse fill="#4c5312" fill-opacity="0.501961" cx="0" cy="0" rx="1" ry="1" /></g>
<g transform="translate(151.137458 44.163259) rotate(294.463169) scale(5.864850 11.103138)"><ellipse fill="#c0c5c4" fill-opacity="0.501961" cx="0" cy="0" rx="1" ry="1" /></g>
<g transform="translate(185.520232 88.480091) rotate(76.338327) scale(4.419606 17.296770)"><ellipse fill="#3e80b4" fill-opacity="0.501961" cx="0" cy="0" rx="1" ry="1" /></g>
<g transform="translate(71.141389 68.891819) rotate(311.390888) scale(1.739722 17.778927)"><ellipse fill="#737d8a" fill-opacity="0.501961" cx="0" cy="0" rx="1" ry="1" /></g>
<g transform="translate(228.637761 35.562447) rotate(115.789090) scale(5.276397 9.478946)"><ellipse fill="#869ead" fill-opacity="0.501961" cx="0" cy="0" rx="1" ry="1" /></g>
<g transform="translate(194.147027 95.966329) rotate(173.881374) scale(38.170635 3.109843)"><ellipse fill="#474c4b" fill-opacity="0.501961" cx="0" cy="0" rx="1" ry="1" /></g>
<g transform="translate(113.774147 92.549766) rotate(283.757471) scale(2.038068 24.808612)"><ellipse fill="#36678f" fill-opacity="0.501961" cx="0" cy="0" rx="1" ry="1" /></g>
<g transform="translate(123.335349 19.394442) rotate(93.503682) scale(2.516141 29.297730)"><ellipse fill="#2f739a" fill-opacity="0.501961" cx="0" cy="0" rx="1" ry="1" /></g>
<g transform="translate(142.286778 136.397591) rotate(151.819690) scale(5.693850 11.230272)"><ellipse fill="#2d2f14" fill-opacity="0.501961" cx="0" cy="0" rx="1" ry="1" /></g>
<g transform="translate(207.415442 0.000000) rotate(179.194538) scale(32.311003 2.962843)"><ellipse fill="#76787c" fill-opacity="0.501961" cx="0" cy="0" rx="1" ry="1" /></g>
<g transform="translate(116.553353 135.326177) rotate(375.806754) scale(6.037828 1.752410)"><ellipse fill="#98935b" fill-opacity="0.501961" cx="0" cy="0" rx="1" ry="1" /></g>
<g transform="translate(28.819934 86.292686) rotate(222.138386) scale(12.309599 3.685621)"><ellipse fill="#4e501c" fill-opacity="0.501961" cx="0" cy="0" rx="1" ry="1" /></g>
<g transform="translate(45.204090 36.943428) rotate(145.396148) scale(7.368306 8.643790)"><ellipse fill="#acafad" fill-opacity="0.501961" cx="0" cy="0" rx="1" ry="1" /></g>
<g transform="translate(115.826171 13.443714) rotate(161.048875) scale(4.764095 1.532620)"><ellipse fill="#b0a396" fill-opacity="0.501961" cx="0" cy="0" rx="1" ry="1" /></g>
<g transform="translate(29.211923 169.000000) rotate(139.714996) scale(1.974090 4.270595)"><ellipse fill="#79742a" fill-opacity="0.501961" cx="0" cy="0" rx="1" ry="1" /></g>
<g transform="translate(0.000000 71.505586) rotate(346.642423) scale(1.000000 2.234659)"><ellipse fill="#bfaf9a" fill-opacity="0.501961" cx="0" cy="0" rx="1" ry="1" /></g>
<g transform="translate(87.902302 154.338162) rotate(112.531977) scale(2.697829 21.708468)"><ellipse fill="#8f874c" fill-opacity="0.501961" cx="0" cy="0" rx="1" ry="1" /></g>
<g transform="translate(79.946679 59.466702) rotate(8.771702) scale(20.064969 6.765516)"><ellipse fill="#c9cfcd" fill-opacity="0.501961" cx="0" cy="0" rx="1" ry="1" /></g>
<g transform="translate(80.442125 141.556602) rotate(281.257927) scale(1.000000 9.316443)"><ellipse fill="#a3a154" fill-opacity="0.501961" cx="0" cy="0" rx="1" ry="1" /></g>
<g transform="translate(99.984160 136.069244) rotate(270.042645) scale(7.725807 1.000000)"><ellipse fill="#898039" fill-opacity="0.501961" cx="0" cy="0" rx="1" ry="1" /></g>
<g transform="translate(14.029398 49.722595) rotate(-44.676687) scale(2.143566 2.553378)"><ellipse fill="#a7b9c5" fill-opacity="0.501961" cx="0" cy="0" rx="1" ry="1" /></g>
<g transform="translate(237.751709 42.384356) rotate(170.004655) scale(15.062067 2.050875)"><ellipse fill="#cac2bc" fill-opacity="0.501961" cx="0" cy="0" rx="1" ry="1" /></g>
<g transform="translate(199.528369 11.665412) rotate(337.491092) scale(12.962901 2.466351)"><ellipse fill="#a4a29d" fill-opacity="0.501961" cx="0" cy="0" rx="1" ry="1" /></g>
<g transform="translate(137.418586 46.364988) rotate(177.931592) scale(10.406506 2.508467)"><ellipse fill="#96a3a9" fill-opacity="0.501961" cx="0" cy="0" rx="1" ry="1" /></g>
<g transform="translate(201.210714 154.281667) rotate(326.149354) scale(4.105270 7.908784)"><ellipse fill="#5f6129" fill-opacity="0.501961" cx="0" cy="0" rx="1" ry="1" /></g>
<g transform="translate(19.434131 89.177427) rotate(195.570144) scale(10.148828 4.983190)"><ellipse fill="#151604" fill-opacity="0.501961" cx="0" cy="0" rx="1" ry="1" /></g>
<g transform="translate(206.329115 47.830580) rotate(11.422264) scale(21.854563 5.227846)"><ellipse fill="#98b8c8" fill-opacity="0.501961" cx="0" cy="0" rx="1" ry="1" /></g>
<g transform="translate(65.305561 71.498601) rotate(205.862603) scale(9.043585 3.615898)"><ellipse fill="#28567f" fill-opacity="0.501961" cx="0" cy="0" rx="1" ry="1" /></g>
<g transform="translate(151.781964 165.386979) rotate(266.477795) scale(29.306308 1.669053)"><ellipse fill="#000401" fill-opacity="0.501961" cx="0" cy="0" rx="1" ry="1" /></g>
<g transform="translate(119.061210 85.312155) rotate(353.868507) scale(14.476895 1.499641)"><ellipse fill="#adc3d2" fill-opacity="0.501961" cx="0" cy="0" rx="1" ry="1" /></g>
<g transform="translate(210.628324 167.944537) rotate(173.136426) scale(3.173940 9.680428)"><ellipse fill="#000000" fill-opacity="0.501961" cx="0" cy="0" rx="1" ry="1" /></g>
<g transform="translate(114.816110 126.960287) rotate(194.568384) scale(2.307847 5.235750)"><ellipse fill="#0c130b" fill-opacity="0.501961" cx="0" cy="0" rx="1" ry="1" /></g>
<g transform="translate(12.638074 35.188036) rotate(379.206078) scale(27.376153 2.049074)"><ellipse fill="#a4a39c" fill-opacity="0.501961" cx="0" cy="0" rx="1" ry="1" /></g>
<g transform="translate(59.274509 22.447846) rotate(155.799072) scale(22.985253 3.456550)"><ellipse fill="#82878a" fill-opacity="0.501961" cx="0" cy="0" rx="1" ry="1" /></g>
<g transform="translate(43.462718 163.477779) rotate(58.069031) scale(39.782752 2.750732)"><ellipse fill="#51521e" fill-opacity="0.501961" cx="0" cy="0" rx="1" ry="1" /></g>
<g transform="translate(227.861274 3.953525) rotate(-1.017477) scale(18.985943 2.809909)"><ellipse fill="#3c5a73" fill-opacity="0.501961" cx="0" cy="0" rx="1" ry="1" /></g>
<g transform="translate(141.216148 69.641105) rotate(33.495368) scale(4.020884 11.099140)"><ellipse fill="#b2c6d0" fill-opacity="0.501961" cx="0" cy="0" rx="1" ry="1" /></g>
<g transform="translate(149.123569 74.621325) rotate(118.997512) scale(10.060632 4.496772)"><ellipse fill="#76a8c7" fill-opacity="0.501961" cx="0" cy="0" rx="1" ry="1" /></g>
<g transform="translate(255.000000 74.975709) rotate(267.388212) scale(3.621769 30.283684)"><ellipse fill="#235382" fill-opacity="0.501961" cx="0" cy="0" rx="1" ry="1" /></g>
<g transform="translate(167.501526 62.254821) rotate(8.955554) scale(14.965967 6.407721)"><ellipse fill="#e5e4df" fill-opacity="0.501961" cx="0" cy="0" rx="1" ry="1" /></g>
<g transform="translate(255.000000 111.430732) rotate(80.932553) scale(18.285713 1.302793)"><ellipse fill="#38381b" fill-opacity="0.501961" cx="0" cy="0" rx="1" ry="1" /></g>
<g transform="translate(59.510100 125.002455) rotate(352.861483) scale(1.000000 10.848118)"><ellipse fill="#6b6f42" fill-opacity="0.501961" cx="0" cy="0" rx="1" ry="1" /></g>
<g transform="translate(45.638954 147.723292) rotate(42.167456) scale(1.000000 13.485851)"><ellipse fill="#20200f" fill-opacity="0.501961" cx="0" cy="0" rx="1" ry="1" /></g>
<g transform="translate(176.818633 141.685595) rotate(219.364269) scale(2.927113 4.108386)"><ellipse fill="#8a864b" fill-opacity="0.501961" cx="0" cy="0" rx="1" ry="1" /></g>
<g transform="translate(220.483205 121.192989) rotate(174.950625) scale(3.423106 10.855909)"><ellipse fill="#11283f" fill-opacity="0.501961" cx="0" cy="0" rx="1" ry="1" /></g>
<g transform="translate(151.231340 106.242780) rotate(268.777450) scale(1.000000 47.536433)"><ellipse fill="#28363f" fill-opacity="0.501961" cx="0" cy="0" rx="1" ry="1" /></g>
<g transform="translate(142.795531 30.091200) rotate(178.131287) scale(31.313314 5.672223)"><ellipse fill="#5093b4" fill-opacity="0.501961" cx="0" cy="0" rx="1" ry="1" /></g>
<g transform="translate(42.303965 99.811993) rotate(63.994638) scale(4.294492 7.720588)"><ellipse fill="#386897" fill-opacity="0.501961" cx="0" cy="0" rx="1" ry="1" /></g>
<g transform="translate(35.095824 82.054276) rotate(313.036085) scale(2.898066 8.968851)"><ellipse fill="#346490" fill-opacity="0.501961" cx="0" cy="0" rx="1" ry="1" /></g>
<g transform="translate(219.576203 133.971163) rotate(21.601453) scale(2.463516 6.971242)"><ellipse fill="#525a39" fill-opacity="0.501961" cx="0" cy="0" rx="1" ry="1" /></g>
<g transform="translate(103.218212 75.222226) rotate(291.859540) scale(1.000000 9.838437)"><ellipse fill="#eae7e2" fill-opacity="0.501961" cx="0" cy="0" rx="1" ry="1" /></g>
<g transform="translate(41.012491 54.523586) rotate(172.694057) scale(10.533713 2.606616)"><ellipse fill="#1f3f5f" fill-opacity="0.501961" cx="0" cy="0" rx="1" ry="1" /></g>
<g transform="translate(0.000000 79.168274) rotate(248.812603) scale(2.126741 21.800320)"><ellipse fill="#131400" fill-opacity="0.501961" cx="0" cy="0" rx="1" ry="1" /></g>
<g transform="translate(82.989877 122.896619) rotate(82.233282) scale(8.303825 1.560760)"><ellipse fill="#5d5c1e" fill-opacity="0.501961" cx="0" cy="0" rx="1" ry="1" /></g>
<g transform="translate(106.419382 81.116318) rotate(101.476114) scale(2.564508 13.983054)"><ellipse fill="#73a0c5" fill-opacity="0.501961" cx="0" cy="0" rx="1" ry="1" /></g>
<g transform="translate(40.807533 2.880520) rotate(376.020662) scale(10.104627 6.484133)"><ellipse fill="#104a6b" fill-opacity="0.501961" cx="0" cy="0" rx="1" ry="1" /></g>
<g transform="translate(142.713626 148.306808) rotate(239.111747) scale(11.242505 4.083226)"><ellipse fill="#0d1108" fill-opacity="0.501961" cx="0" cy="0" rx="1" ry="1" /></g>
<g transform="translate(188.638399 152.427627) rotate(233.547804) scale(4.809943 1.455253)"><ellipse fill="#1e2208" fill-opacity="0.501961" cx="0" cy="0" rx="1" ry="1" /></g>
<g transform="translate(220.265973 23.070648) rotate(94.805833) scale(3.645825 17.349072)"><ellipse fill="#aba59f" fill-opacity="0.501961" cx="0" cy="0" rx="1" ry="1" /></g>
<g transform="translate(245.601103 135.192612) rotate(310.812802) scale(25.257336 5.896150)"><ellipse fill="#000200" fill-opacity="0.501961" cx="0" cy="0" rx="1" ry="1" /></g>
<g transform="translate(183.788955 118.087129) rotate(17.766093) scale(6.352656 20.141403)"><ellipse fill="#1b2d39" fill-opacity="0.501961" cx="0" cy="0" rx="1" ry="1" /></g>
<g transform="translate(112.502326 157.736398) rotate(241.425315) scale(1.777305 6.015540)"><ellipse fill="#121c0c" fill-opacity="0.501961" cx="0" cy="0" rx="1" ry="1" /></g>
<g transform="translate(80.230696 125.480619) rotate(189.336104) scale(1.000000 7.336403)"><ellipse fill="#1b1b04" fill-opacity="0.501961" cx="0" cy="0" rx="1" ry="1" /></g>
<g transform="translate(104.792193 122.774438) rotate(287.005776) scale(3.254272 9.866765)"><ellipse fill="#374557" fill-opacity="0.501961" cx="0" cy="0" rx="1" ry="1" /></g>
<g transform="translate(28.958814 162.006886) rotate(115.197536) scale(1.155664 24.060718)"><ellipse fill="#18150d" fill-opacity="0.501961" cx="0" cy="0" rx="1" ry="1" /></g>
<g transform="translate(145.124214 5.302477) rotate(183.397173) scale(28.973886 6.075526)"><ellipse fill="#1c5576" fill-opacity="0.501961" cx="0" cy="0" rx="1" ry="1" /></g>
<g transform="translate(111.637576 3.543403) rotate(30.232200) scale(5.770728 11.161540)"><ellipse fill="#205678" fill-opacity="0.501961" cx="0" cy="0" rx="1" ry="1" /></g>
<g transform="translate(40.821031 120.347352) rotate(152.446870) scale(6.592882 5.432047)"><ellipse fill="#515127" fill-opacity="0.501961" cx="0" cy="0" rx="1" ry="1" /></g>
<g transform="translate(126.000412 139.933744) rotate(88.860382) scale(14.642167 1.000000)"><ellipse fill="#121701" fill-opacity="0.501961" cx="0" cy="0" rx="1" ry="1" /></g>
<g transform="translate(247.902040 61.720118) rotate(313.002274) scale(10.861596 5.275941)"><ellipse fill="#40648b" fill-opacity="0.501961" cx="0" cy="0" rx="1" ry="1" /></g>
<g transform="translate(217.222338 29.756825) rotate(89.228438) scale(1.000000 28.803869)"><ellipse fill="#4c7e9d" fill-opacity="0.501961" cx="0" cy="0" rx="1" ry="1" /></g>
<g transform="translate(19.631400 47.840568) rotate(272.286882) scale(1.000000 58.109652)"><ellipse fill="#8694a1" fill-opacity="0.501961" cx="0" cy="0" rx="1" ry="1" /></g>
<g transform="translate(96.656878 136.090719) rotate(370.858486) scale(2.273405 3.737255)"><ellipse fill="#393902" fill-opacity="0.501961" cx="0" cy="0" rx="1" ry="1" /></g>
<g transform="translate(16.700071 151.861045) rotate(326.705546) scale(13.922267 2.167742)"><ellipse fill="#0b0a04" fill-opacity="0.501961" cx="0" cy="0" rx="1" ry="1" /></g>
<g transform="translate(50.601079 152.517704) rotate(74.212908) scale(2.972334 8.602664)"><ellipse fill="#837d3d" fill-opacity="0.501961" cx="0" cy="0" rx="1" ry="1" /></g>
<g transform="translate(231.180311 168.708118) rotate(183.243422) scale(4.923136 2.090793)"><ellipse fill="#0a0b0b" fill-opacity="0.501961" cx="0" cy="0" rx="1" ry="1" /></g>
<g transform="translate(82.984342 17.688134) rotate(135.430611) scale(9.100562 3.630976)"><ellipse fill="#226388" fill-opacity="0.501961" cx="0" cy="0" rx="1" ry="1" /></g>
<g transform="translate(187.839324 5.607087) rotate(287.087985) scale(1.000000 15.343021)"><ellipse fill="#426179" fill-opacity="0.501961" cx="0" cy="0" rx="1" ry="1" /></g>
<g transform="translate(195.265182 73.833737) rotate(323.435209) scale(5.504265 2.914039)"><ellipse fill="#1d5c8d" fill-opacity="0.501961" cx="0" cy="0" rx="1" ry="1" /></g>
<g transform="translate(13.040245 138.693855) rotate(35.042449) scale(2.451327 20.280770)"><ellipse fill="#0a0d07" fill-opacity="0.501961" cx="0" cy="0" rx="1" ry="1" /></g>
<g transform="translate(223.625574 57.752452) rotate(359.655751) scale(13.495233 3.571857)"><ellipse fill="#cfd0ce" fill-opacity="0.501961" cx="0" cy="0" rx="1" ry="1" /></g>
<g transform="translate(202.014026 71.929941) rotate(184.999924) scale(1.594539 9.242191)"><ellipse fill="#96a7b9" fill-opacity="0.501961" cx="0" cy="0" rx="1" ry="1" /></g>
<g transform="translate(126.279771 169.000000) rotate(73.100791) scale(3.208498 18.345565)"><ellipse fill="#1e1f0e" fill-opacity="0.501961" cx="0" cy="0" rx="1" ry="1" /></g>
<g transform="translate(75.000066 159.806372) rotate(368.835513) scale(9.399308 2.109203)"><ellipse fill="#928a54" fill-opacity="0.501961" cx="0" cy="0" rx="1" ry="1" /></g>
<g transform="translate(146.401366 139.344763) rotate(59.631055) scale(27.356719 1.000000)"><ellipse fill="#32341f" fill-opacity="0.501961" cx="0" cy="0" rx="1" ry="1" /></g>
<g transform="translate(63.631460 106.862853) rotate(4.821744) scale(17.052884 3.268417)"><ellipse fill="#b8bcbe" fill-opacity="0.501961" cx="0" cy="0" rx="1" ry="1" /></g>
<g transform="translate(190.265310 130.131206) rotate(96.549505) scale(5.101554 4.614577)"><ellipse fill="#464c51" fill-opacity="0.501961" cx="0" cy="0" rx="1" ry="1" /></g>
<g transform="translate(123.495878 53.396025) rotate(339.733985) scale(8.014101 1.979219)"><ellipse fill="#8ea2ae" fill-opacity="0.501961" cx="0" cy="0" rx="1" ry="1" /></g>
<g transform="translate(221.748913 96.675377) rotate(264.256539) scale(2.101006 104.411858)"><ellipse fill="#3e4647" fill-opacity="0.501961" cx="0" cy="0" rx="1" ry="1" /></g>
<g transform="translate(7.486352 169.000000) rotate(352.525484) scale(2.965041 14.618359)"><ellipse fill="#2a2614" fill-opacity="0.501961" cx="0" cy="0" rx="1" ry="1" /></g>
<g transform="translate(253.463645 43.386565) rotate(69.603967) scale(2.041088 17.174068)"><ellipse fill="#767d8a" fill-opacity="0.501961" cx="0" cy="0" rx="1" ry="1" /></g>
<g transform="translate(103.659136 138.407238) rotate(14.462132) scale(2.487286 2.791889)"><ellipse fill="#060b04" fill-opacity="0.501961" cx="0" cy="0" rx="1" ry="1" /></g>
<g transform="translate(120.292402 40.992183) rotate(265.921786) scale(2.343829 18.895264)"><ellipse fill="#7ab2cc" fill-opacity="0.501961" cx="0" cy="0" rx="1" ry="1" /></g>
<g transform="translate(72.481166 31.139674) rotate(177.637205) scale(10.146071 2.386060)"><ellipse fill="#acacaa" fill-opacity="0.501961" cx="0" cy="0" rx="1" ry="1" /></g>
<g transform="translate(248.671023 169.000000) rotate(74.951422) scale(1.000000 79.256919)"><ellipse fill="#110d11" fill-opacity="0.501961" cx="0" cy="0" rx="1" ry="1" /></g>
<g transform="translate(33.690454 11.590640) rotate(66.500577) scale(2.823669 4.178621)"><ellipse fill="#979798" fill-opacity="0.501961" cx="0" cy="0" rx="1" ry="1" /></g>
<g transform="translate(244.564382 164.199151) rotate(164.974987) scale(2.199158 7.597759)"><ellipse fill="#010600" fill-opacity="0.501961" cx="0" cy="0" rx="1" ry="1" /></g>
<g transform="translate(200.722425 161.920853) rotate(284.807428) scale(4.715885 2.128342)"><ellipse fill="#000200" fill-opacity="0.501961" cx="0" cy="0" rx="1" ry="1" /></g>
<g transform="translate(154.100578 132.655037) rotate(124.598077) scale(14.686042 4.532662)"><ellipse fill="#3f411a" fill-opacity="0.501961" cx="0" cy="0" rx="1" ry="1" /></g>
<g transform="translate(143.848052 98.963439) rotate(343.527477) scale(14.765531 2.440070)"><ellipse fill="#96adc1" fill-opacity="0.501961" cx="0" cy="0" rx="1" ry="1" /></g>
<g transform="translate(94.782376 14.045856) rotate(118.318862) scale(7.394225 3.418795)"><ellipse fill="#7e878d" fill-opacity="0.501961" cx="0" cy="0" rx="1" ry="1" /></g>
<g transform="translate(24.735137 63.381149) rotate(306.141755) scale(1.000000 5.046932)"><ellipse fill="#66630f" fill-opacity="0.501961" cx="0" cy="0" rx="1" ry="1" /></g>
<g transform="translate(70.747641 70.491474) rotate(107.358940) scale(1.514757 13.883314)"><ellipse fill="#3e5f7e" fill-opacity="0.501961" cx="0" cy="0" rx="1" ry="1" /></g>
<g transform="translate(20.341074 103.360653) rotate(58.317714) scale(7.535942 2.910437)"><ellipse fill="#16120b" fill-opacity="0.501961" cx="0" cy="0" rx="1" ry="1" /></g>
<g transform="translate(231.765292 119.860170) rotate(94.665940) scale(11.788181 3.226469)"><ellipse fill="#121305" fill-opacity="0.501961" cx="0" cy="0" rx="1" ry="1" /></g>
<g transform="translate(234.790073 68.539992) rotate(204.759748) scale(4.672693 5.362798)"><ellipse fill="#6384ab" fill-opacity="0.501961" cx="0" cy="0" rx="1" ry="1" /></g>
<g transform="translate(145.103172 53.722240) rotate(42.104890) scale(4.450162 15.284929)"><ellipse fill="#d2d5d1" fill-opacity="0.501961" cx="0" cy="0" rx="1" ry="1" /></g>
<g transform="translate(156.518606 156.179271) rotate(273.960904) scale(31.753107 1.279851)"><ellipse fill="#151709" fill-opacity="0.501961" cx="0" cy="0" rx="1" ry="1" /></g>
<g transform="translate(253.032111 140.997686) rotate(358.955530) scale(2.466554 13.189460)"><ellipse fill="#080a05" fill-opacity="0.501961" cx="0" cy="0" rx="1" ry="1" /></g>
<g transform="translate(189.758813 11.182209) rotate(40.800280) scale(6.533553 2.572443)"><ellipse fill="#969a98" fill-opacity="0.501961" cx="0" cy="0" rx="1" ry="1" /></g>
<g transform="translate(204.393316 5.037847) rotate(2.716672) scale(6.735339 1.763436)"><ellipse fill="#8c8d8d" fill-opacity="0.501961" cx="0" cy="0" rx="1" ry="1" /></g>
<g transform="translate(112.473076 169.000000) rotate(76.893422) scale(4.391529 9.135930)"><ellipse fill="#060b02" fill-opacity="0.501961" cx="0" cy="0" rx="1" ry="1" /></g>
<g transform="translate(139.290869 116.385444) rotate(263.692360) scale(8.429824 1.000000)"><ellipse fill="#8b8571" fill-opacity="0.501961" cx="0" cy="0" rx="1" ry="1" /></g>
<g transform="translate(71.217442 117.907826) rotate(144.733282) scale(11.819586 1.875184)"><ellipse fill="#333e44" fill-opacity="0.501961" cx="0" cy="0" rx="1" ry="1" /></g>
<g transform="translate(13.381585 21.319257) rotate(118.476680) scale(7.893653 1.856391)"><ellipse fill="#b4ab9e" fill-opacity="0.501961" cx="0" cy="0" rx="1" ry="1" /></g>
<g transform="translate(94.411587 114.546800) rotate(329.873023) scale(18.618825 1.000000)"><ellipse fill="#1f2d34" fill-opacity="0.501961" cx="0" cy="0" rx="1" ry="1" /></g>
<g transform="translate(255.000000 85.598075) rotate(344.447132) scale(19.392785 1.468030)"><ellipse fill="#1f262a" fill-opacity="0.501961" cx="0" cy="0" rx="1" ry="1" /></g>
<g transform="translate(181.967089 148.090388) rotate(271.868106) scale(3.899035 1.000000)"><ellipse fill="#121309" fill-opacity="0.501961" cx="0" cy="0" rx="1" ry="1" /></g>
<g transform="translate(41.363884 130.945439) rotate(59.218177) scale(11.139907 1.492221)"><ellipse fill="#7d7f2f" fill-opacity="0.501961" cx="0" cy="0" rx="1" ry="1" /></g>
<g transform="translate(195.666049 147.641431) rotate(188.565852) scale(1.000000 13.384515)"><ellipse fill="#2a2c11" fill-opacity="0.501961" cx="0" cy="0" rx="1" ry="1" /></g>
<g transform="translate(159.347068 169.000000) rotate(271.919423) scale(1.000000 2.448428)"><ellipse fill="#686637" fill-opacity="0.501961" cx="0" cy="0" rx="1" ry="1" /></g>
<g transform="translate(173.224299 141.784467) rotate(271.398761) scale(20.859466 1.000000)"><ellipse fill="#4f5025" fill-opacity="0.501961" cx="0" cy="0" rx="1" ry="1" /></g>
<g transform="translate(30.034282 45.273236) rotate(82.831531) scale(1.000000 12.520604)"><ellipse fill="#697b8c" fill-opacity="0.501961" cx="0" cy="0" rx="1" ry="1" /></g>
<g transform="translate(59.885946 168.119676) rotate(357.389887) scale(9.554760 5.337610)"><ellipse fill="#857a3c" fill-opacity="0.501961" cx="0" cy="0" rx="1" ry="1" /></g>
<g transform="translate(8.891204 52.548995) rotate(32.691676) scale(1.083027 3.381745)"><ellipse fill="#171a00" fill-opacity="0.501961" cx="0" cy="0" rx="1" ry="1" /></g>
<g transform="translate(85.027156 62.656545) rotate(174.657411) scale(15.257968 7.980448)"><ellipse fill="#c8cece" fill-opacity="0.501961" cx="0" cy="0" rx="1" ry="1" /></g>
<g transform="translate(83.425531 100.603851) rotate(189.400398) scale(15.523860 1.499905)"><ellipse fill="#1d5986" fill-opacity="0.501961" cx="0" cy="0" rx="1" ry="1" /></g>
<g transform="translate(224.742263 42.995807) rotate(90.371245) scale(1.000000 12.740466)"><ellipse fill="#dcd4cd" fill-opacity="0.501961" cx="0" cy="0" rx="1" ry="1" /></g>
<g transform="translate(113.001562 87.741086) rotate(288.828266) scale(1.892605 13.649921)"><ellipse fill="#a3b8c7" fill-opacity="0.501961" cx="0" cy="0" rx="1" ry="1" /></g>
<g transform="translate(168.599291 88.364595) rotate(177.716321) scale(50.319163 1.000000)"><ellipse fill="#2e76a9" fill-opacity="0.501961" cx="0" cy="0" rx="1" ry="1" /></g>
<g transform="translate(83.664502 92.027894) rotate(71.243596) scale(6.548740 6.276350)"><ellipse fill="#5b7896" fill-opacity="0.501961" cx="0" cy="0" rx="1" ry="1" /></g>
<g transform="translate(119.561511 143.410719) rotate(77.765721) scale(1.000000 3.062960)"><ellipse fill="#9a885e" fill-opacity="0.501961" cx="0" cy="0" rx="1" ry="1" /></g>
<g transform="translate(64.076484 141.621910) rotate(352.709915) scale(1.377116 12.383323)"><ellipse fill="#1f2111" fill-opacity="0.501961" cx="0" cy="0" rx="1" ry="1" /></g>
<g transform="translate(196.390834 32.949942) rotate(96.190750) scale(3.177820 32.663564)"><ellipse fill="#5d93b1" fill-opacity="0.501961" cx="0" cy="0" rx="1" ry="1" /></g>
<g transform="translate(98.876921 143.412678) rotate(271.655038) scale(12.305356 1.000000)"><ellipse fill="#777234" fill-opacity="0.501961" cx="0" cy="0" rx="1" ry="1" /></g>
<g transform="translate(0.766992 83.321691) rotate(209.246407) scale(4.657127 1.000000)"><ellipse fill="#275278" fill-opacity="0.501961" cx="0" cy="0" rx="1" ry="1" /></g>
<g transform="translate(13.965842 79.779091) rotate(180.053892) scale(17.150994 1.000000)"><ellipse fill="#484716" fill-opacity="0.501961" cx="0" cy="0" rx="1" ry="1" /></g>
<g transform="translate(130.197226 140.944511) rotate(94.339249) scale(2.799502 2.176859)"><ellipse fill="#818224" fill-opacity="0.501961" cx="0" cy="0" rx="1" ry="1" /></g>
<g transform="translate(248.888176 160.171866) rotate(139.472057) scale(1.000000 4.613557)"><ellipse fill="#7a7c19" fill-opacity="0.501961" cx="0" cy="0" rx="1" ry="1" /></g>
<g transform="translate(197.808065 152.677569) rotate(-7.065516) scale(1.000000 5.673992)"><ellipse fill="#888241" fill-opacity="0.501961" cx="0" cy="0" rx="1" ry="1" /></g>
<g transform="translate(227.024835 32.931865) rotate(272.874956) scale(1.000000 5.905932)"><ellipse fill="#bbb3ad" fill-opacity="0.501961" cx="0" cy="0" rx="1" ry="1" /></g>
<g transform="translate(117.728316 137.352670) rotate(288.042266) scale(6.926438 1.746781)"><ellipse fill="#8a8450" fill-opacity="0.501961" cx="0" cy="0" rx="1" ry="1" /></g>
<g transform="translate(230.438148 6.811147) rotate(112.067437) scale(1.212152 3.006108)"><ellipse fill="#96979b" fill-opacity="0.501961" cx="0" cy="0" rx="1" ry="1" /></g>
<g transform="translate(113.759576 115.283799) rotate(65.397825) scale(2.797087 10.610491)"><ellipse fill="#6a665d" fill-opacity="0.501961" cx="0" cy="0" rx="1" ry="1" /></g>
<g transform="translate(15.499530 68.901708) rotate(14.727029) scale(4.506689 1.229160)"><ellipse fill="#384c5e" fill-opacity="0.501961" cx="0" cy="0" rx="1" ry="1" /></g>
<g transform="translate(232.393968 101.370245) rotate(72.619493) scale(3.606559 21.787866)"><ellipse fill="#1b2a38" fill-opacity="0.501961" cx="0" cy="0" rx="1" ry="1" /></g>
<g transform="translate(219.924003 16.760275) rotate(92.739264) scale(1.000000 13.192171)"><ellipse fill="#3b647f" fill-opacity="0.501961" cx="0" cy="0" rx="1" ry="1" /></g>
<g transform="translate(126.956360 133.046775) rotate(322.586960) scale(1.000000 4.670396)"><ellipse fill="#0a1000" fill-opacity="0.501961" cx="0" cy="0" rx="1" ry="1" /></g>
<g transform="translate(143.170464 162.961704) rotate(210.005515) scale(6.434745 1.249524)"><ellipse fill="#646c1f" fill-opacity="0.501961" cx="0" cy="0" rx="1" ry="1" /></g>
<g transform="translate(163.894563 153.232116) rotate(180.704386) scale(1.000000 24.762544)"><ellipse fill="#575623" fill-opacity="0.501961" cx="0" cy="0" rx="1" ry="1" /></g>
<g transform="translate(39.950005 112.149796) rotate(341.552095) scale(4.969845 1.000000)"><ellipse fill="#b5b49e" fill-opacity="0.501961" cx="0" cy="0" rx="1" ry="1" /></g>
<g transform="translate(225.842494 164.233823) rotate(205.814657) scale(51.820392 1.000000)"><ellipse fill="#3a3b1b" fill-opacity="0.501961" cx="0" cy="0" rx="1" ry="1" /></g>
<g transform="translate(105.551070 111.002196) rotate(150.990615) scale(3.550785 1.000000)"><ellipse fill="#a3987f" fill-opacity="0.501961" cx="0" cy="0" rx="1" ry="1" /></g>
<g transform="translate(244.619358 147.951041) rotate(351.361951) scale(2.109381 7.421217)"><ellipse fill="#000200" fill-opacity="0.501961" cx="0" cy="0" rx="1" ry="1" /></g>
<g transform="translate(74.240341 4.657666) rotate(200.732016) scale(6.470604 8.961728)"><ellipse fill="#19506f" fill-opacity="0.501961" cx="0" cy="0" rx="1" ry="1" /></g>
<g transform="translate(42.132497 123.460457) rotate(350.812458) scale(1.021242 6.656288)"><ellipse fill="#36341b" fill-opacity="0.501961" cx="0" cy="0" rx="1" ry="1" /></g>
<g transform="translate(110.551752 120.331716) rotate(24.620794) scale(1.914556 3.964712)"><ellipse fill="#28384b" fill-opacity="0.501961" cx="0" cy="0" rx="1" ry="1" /></g>
<g transform="translate(122.955519 148.175395) rotate(27.701505) scale(6.063136 1.931536)"><ellipse fill="#0e0f09" fill-opacity="0.501961" cx="0" cy="0" rx="1" ry="1" /></g>
<g transform="translate(92.175219 166.134382) rotate(21.011844) scale(4.471257 1.000000)"><ellipse fill="#32301d" fill-opacity="0.501961" cx="0" cy="0" rx="1" ry="1" /></g>
<g transform="translate(228.483358 160.247146) rotate(343.733129) scale(1.000000 8.363310)"><ellipse fill="#3f3e21" fill-opacity="0.501961" cx="0" cy="0" rx="1" ry="1" /></g>
<g transform="translate(213.489268 94.258873) rotate(275.349061) scale(3.237414 22.460037)"><ellipse fill="#434d4b" fill-opacity="0.501961" cx="0" cy="0" rx="1" ry="1" /></g>
<g transform="translate(157.145375 16.409660) rotate(180.169042) scale(30.378042 3.391721)"><ellipse fill="#337092" fill-opacity="0.501961" cx="0" cy="0" rx="1" ry="1" /></g>
<g transform="translate(4.278136 60.266166) rotate(339.899792) scale(1.000000 4.219777)"><ellipse fill="#1e4c76" fill-opacity="0.501961" cx="0" cy="0" rx="1" ry="1" /></g>
<g transform="translate(120.540718 79.828741) rotate(189.478272) scale(1.470497 1.000000)"><ellipse fill="#eeece7" fill-opacity="0.501961" cx="0" cy="0" rx="1" ry="1" /></g>
<g transform="translate(154.223918 25.944459) rotate(3.706322) scale(67.299524 1.981325)"><ellipse fill="#4484a7" fill-opacity="0.501961" cx="0" cy="0" rx="1" ry="1" /></g>
<g transform="translate(14.450137 66.117438) rotate(191.754558) scale(6.914915 1.000000)"><ellipse fill="#000304" fill-opacity="0.501961" cx="0" cy="0" rx="1" ry="1" /></g>
<g transform="translate(208.939494 76.866430) rotate(141.020516) scale(11.988362 1.498613)"><ellipse fill="#32699d" fill-opacity="0.501961" cx="0" cy="0" rx="1" ry="1" /></g>
<g transform="translate(0.000000 50.129170) rotate(350.639418) scale(7.301529 3.078417)"><ellipse fill="#97a0a8" fill-opacity="0.501961" cx="0" cy="0" rx="1" ry="1" /></g>
<g transform="translate(8.068255 62.350964) rotate(81.447065) scale(11.605700 1.777032)"><ellipse fill="#141a0b" fill-opacity="0.501961" cx="0" cy="0" rx="1" ry="1" /></g>
<g transform="translate(255.000000 82.383444) rotate(259.434480) scale(1.000000 44.628905)"><ellipse fill="#2f6ca2" fill-opacity="0.501961" cx="0" cy="0" rx="1" ry="1" /></g>
<g transform="translate(135.099715 148.053453) rotate(97.534325) scale(1.000000 10.097399)"><ellipse fill="#51511b" fill-opacity="0.501961" cx="0" cy="0" rx="1" ry="1" /></g>
<g transform="translate(58.507478 73.526057) rotate(136.553633) scale(2.297554 6.055626)"><ellipse fill="#6f8195" fill-opacity="0.501961" cx="0" cy="0" rx="1" ry="1" /></g>
<g transform="translate(81.759992 46.046078) rotate(195.247112) scale(14.485165 2.486572)"><ellipse fill="#cdcec8" fill-opacity="0.501961" cx="0" cy="0" rx="1" ry="1" /></g>
<g transform="translate(130.341410 132.098192) rotate(239.137751) scale(9.294564 1.000000)"><ellipse fill="#696a1f" fill-opacity="0.501961" cx="0" cy="0" rx="1" ry="1" /></g>
<g transform="translate(56.798303 113.143098) rotate(172.641309) scale(9.336010 3.618296)"><ellipse fill="#aba89c" fill-opacity="0.501961" cx="0" cy="0" rx="1" ry="1" /></g>
<g transform="translate(24.445602 112.240995) rotate(338.099119) scale(15.216608 1.000000)"><ellipse fill="#565229" fill-opacity="0.501961" cx="0" cy="0" rx="1" ry="1" /></g>
<g transform="translate(33.855942 64.907602) rotate(282.609159) scale(1.061669 6.918003)"><ellipse fill="#9a8e8c" fill-opacity="0.501961" cx="0" cy="0" rx="1" ry="1" /></g>
<g transform="translate(82.632309 139.300539) rotate(196.920486) scale(5.731492 1.000000)"><ellipse fill="#4b4a31" fill-opacity="0.501961" cx="0" cy="0" rx="1" ry="1" /></g>
<g transform="translate(184.828493 45.832600) rotate(264.784486) scale(4.302121 29.282268)"><ellipse fill="#92b8c9" fill-opacity="0.501961" cx="0" cy="0" rx="1" ry="1" /></g>
<g transform="translate(75.261177 38.533933) rotate(273.267323) scale(2.665722 11.532457)"><ellipse fill="#6ba3be" fill-opacity="0.501961" cx="0" cy="0" rx="1" ry="1" /></g>
<g transform="translate(131.744166 155.854590) rotate(303.392690) scale(11.091097 3.514293)"><ellipse fill="#474819" fill-opacity="0.501961" cx="0" cy="0" rx="1" ry="1" /></g>
<g transform="translate(95.741016 145.429308) rotate(180.690295) scale(3.008218 3.820758)"><ellipse fill="#847e3c" fill-opacity="0.501961" cx="0" cy="0" rx="1" ry="1" /></g>
<g transform="translate(48.067461 69.181945) rotate(89.201290) scale(13.208959 1.000000)"><ellipse fill="#1f4a74" fill-opacity="0.501961" cx="0" cy="0" rx="1" ry="1" /></g>
<g transform="translate(14.485251 121.281925) rotate(125.320829) scale(1.000000 36.762409)"><ellipse fill="#212211" fill-opacity="0.501961" cx="0" cy="0" rx="1" ry="1" /></g>
<g transform="translate(216.144067 61.924004) rotate(295.627016) scale(1.000000 6.266934)"><ellipse fill="#eeece6" fill-opacity="0.501961" cx="0" cy="0" rx="1" ry="1" /></g>
<g transform="translate(62.317647 125.294476) rotate(265.474883) scale(7.538039 1.000000)"><ellipse fill="#131809" fill-opacity="0.501961" cx="0" cy="0" rx="1" ry="1" /></g>
<g transform="translate(55.173093 32.085787) rotate(227.344334) scale(7.557771 3.009359)"><ellipse fill="#5484a0" fill-opacity="0.501961" cx="0" cy="0" rx="1" ry="1" /></g>
<g transform="translate(105.834705 31.607246) rotate(32.322858) scale(2.990858 4.789396)"><ellipse fill="#c6c2bc" fill-opacity="0.501961" cx="0" cy="0" rx="1" ry="1" /></g>
<g transform="translate(188.455943 17.790401) rotate(385.062424) scale(1.795479 3.805606)"><ellipse fill="#878683" fill-opacity="0.501961" cx="0" cy="0" rx="1" ry="1" /></g>
<g transform="translate(234.565026 57.424042) rotate(162.972848) scale(16.758605 2.045238)"><ellipse fill="#c0c0be" fill-opacity="0.501961" cx="0" cy="0" rx="1" ry="1" /></g>
<g transform="translate(255.000000 156.386417) rotate(369.421187) scale(2.142677 4.517259)"><ellipse fill="#6a6a22" fill-opacity="0.501961" cx="0" cy="0" rx="1" ry="1" /></g>
<g transform="translate(21.085199 55.347979) rotate(59.360790) scale(5.377966 2.785360)"><ellipse fill="#0e1102" fill-opacity="0.501961" cx="0" cy="0" rx="1" ry="1" /></g>
<g transform="translate(74.328981 84.748593) rotate(18.967759) scale(4.505511 1.540038)"><ellipse fill="#818fa1" fill-opacity="0.501961" cx="0" cy="0" rx="1" ry="1" /></g>
<g transform="translate(34.737302 83.449339) rotate(78.157831) scale(1.837149 3.740203)"><ellipse fill="#567798" fill-opacity="0.501961" cx="0" cy="0" rx="1" ry="1" /></g>
<g transform="translate(75.176341 139.565242) rotate(321.239465) scale(3.518922 4.957894)"><ellipse fill="#8d884c" fill-opacity="0.501961" cx="0" cy="0" rx="1" ry="1" /></g>
<g transform="translate(143.407931 111.468177) rotate(106.397439) scale(5.937671 2.326922)"><ellipse fill="#515b62" fill-opacity="0.501961" cx="0" cy="0" rx="1" ry="1" /></g>
<g transform="translate(128.410068 72.868068) rotate(126.616530) scale(7.303157 1.595708)"><ellipse fill="#659abe" fill-opacity="0.501961" cx="0" cy="0" rx="1" ry="1" /></g>
<g transform="translate(88.099090 131.145925) rotate(81.658629) scale(1.305240 9.135561)"><ellipse fill="#8d8b44" fill-opacity="0.501961" cx="0" cy="0" rx="1" ry="1" /></g>
<g transform="translate(95.378246 85.356960) rotate(119.081753) scale(2.759840 7.188398)"><ellipse fill="#466c8b" fill-opacity="0.501961" cx="0" cy="0" rx="1" ry="1" /></g>
<g transform="translate(0.000000 13.824717) rotate(281.790169) scale(3.037515 5.966099)"><ellipse fill="#9a958e" fill-opacity="0.501961" cx="0" cy="0" rx="1" ry="1" /></g>
<g transform="translate(8.054686 139.401885) rotate(167.622354) scale(19.829292 2.420329)"><ellipse fill="#0b0c07" fill-opacity="0.501961" cx="0" cy="0" rx="1" ry="1" /></g>
<g transform="translate(176.504334 167.985906) rotate(12.565333) scale(3.762151 13.758092)"><ellipse fill="#474715" fill-opacity="0.501961" cx="0" cy="0" rx="1" ry="1" /></g>
<g transform="translate(154.589499 113.912944) rotate(29.115211) scale(4.316363 14.128695)"><ellipse fill="#152b3b" fill-opacity="0.501961" cx="0" cy="0" rx="1" ry="1" /></g>
<g transform="translate(169.586403 81.960210) rotate(256.170335) scale(7.958491 25.981070)"><ellipse fill="#2f74a6" fill-opacity="0.501961" cx="0" cy="0" rx="1" ry="1" /></g>
<g transform="translate(96.938458 138.819829) rotate(107.768146) scale(1.279049 3.554245)"><ellipse fill="#282a0c" fill-opacity="0.501961" cx="0" cy="0" rx="1" ry="1" /></g>
<g transform="translate(157.084689 123.955490) rotate(315.165524) scale(4.969750 2.658151)"><ellipse fill="#434c49" fill-opacity="0.501961" cx="0" cy="0" rx="1" ry="1" /></g>
<g transform="translate(49.519427 144.688409) rotate(213.487325) scale(3.331571 1.932855)"><ellipse fill="#0d1008" fill-opacity="0.501961" cx="0" cy="0" rx="1" ry="1" /></g>
<g transform="translate(214.345766 117.028522) rotate(355.071248) scale(1.000000 8.018164)"><ellipse fill="#595f36" fill-opacity="0.501961" cx="0" cy="0" rx="1" ry="1" /></g>
<g transform="translate(33.295915 56.132409) rotate(140.575394) scale(11.397024 1.788536)"><ellipse fill="#2b4a64" fill-opacity="0.501961" cx="0" cy="0" rx="1" ry="1" /></g>
<g transform="translate(117.547206 65.331456) rotate(355.617241) scale(40.665863 1.101817)"><ellipse fill="#d6dad5" fill-opacity="0.501961" cx="0" cy="0" rx="1" ry="1" /></g>
<g transform="translate(10.141929 96.990680) rotate(85.809425) scale(20.234635 2.259176)"><ellipse fill="#0c0e00" fill-opacity="0.501961" cx="0" cy="0" rx="1" ry="1" /></g>
<g transform="translate(116.042825 128.392654) rotate(259.959921) scale(4.244386 2.688434)"><ellipse fill="#1e2311" fill-opacity="0.501961" cx="0" cy="0" rx="1" ry="1" /></g>
<g transform="translate(215.094241 146.412991) rotate(178.583555) scale(16.465747 1.640395)"><ellipse fill="#060b02" fill-opacity="0.501961" cx="0" cy="0" rx="1" ry="1" /></g>
<g transform="translate(142.084215 134.193324) rotate(16.306894) scale(1.393034 3.186887)"><ellipse fill="#080d03" fill-opacity="0.501961" cx="0" cy="0" rx="1" ry="1" /></g>
<g transform="translate(103.798720 58.504215) rotate(87.021401) scale(1.000000 17.368614)"><ellipse fill="#dadbd5" fill-opacity="0.501961" cx="0" cy="0" rx="1" ry="1" /></g>
<g transform="translate(32.201526 126.724407) rotate(81.928864) scale(1.391786 4.691190)"><ellipse fill="#64642a" fill-opacity="0.501961" cx="0" cy="0" rx="1" ry="1" /></g>
<g transform="translate(193.432950 5.545439) rotate(169.131061) scale(4.469008 2.059040)"><ellipse fill="#3a5a6f" fill-opacity="0.501961" cx="0" cy="0" rx="1" ry="1" /></g>
<g transform="translate(157.565861 99.549585) rotate(243.566436) scale(2.090156 13.622282)"><ellipse fill="#3e444a" fill-opacity="0.501961" cx="0" cy="0" rx="1" ry="1" /></g>
<g transform="translate(68.890346 136.175224) rotate(287.797906) scale(5.151182 1.557698)"><ellipse fill="#323011" fill-opacity="0.501961" cx="0" cy="0" rx="1" ry="1" /></g>
<g transform="translate(103.838281 50.907758) rotate(118.707027) scale(3.408758 9.912827)"><ellipse fill="#adbabf" fill-opacity="0.501961" cx="0" cy="0" rx="1" ry="1" /></g>
<g transform="translate(232.529116 64.373467) rotate(256.878975) scale(3.288718 8.936630)"><ellipse fill="#5e7e9c" fill-opacity="0.501961" cx="0" cy="0" rx="1" ry="1" /></g>
<g transform="translate(178.697764 92.430001) rotate(-0.631386) scale(4.975768 2.171436)"><ellipse fill="#578bb2" fill-opacity="0.501961" cx="0" cy="0" rx="1" ry="1" /></g>
<g transform="translate(80.726489 128.019885) rotate(256.468031) scale(3.297091 2.436009)"><ellipse fill="#303210" fill-opacity="0.501961" cx="0" cy="0" rx="1" ry="1" /></g>
<g transform="translate(4.375180 132.770929) rotate(255.515015) scale(41.257133 3.681664)"><ellipse fill="#060901" fill-opacity="0.501961" cx="0" cy="0" rx="1" ry="1" /></g>
<g transform="translate(120.743301 102.418568) rotate(93.161831) scale(1.000000 8.290143)"><ellipse fill="#3a7299" fill-opacity="0.501961" cx="0" cy="0" rx="1" ry="1" /></g>
<g transform="translate(101.806027 18.493162) rotate(315.686670) scale(4.054441 6.307722)"><ellipse fill="#326e93" fill-opacity="0.501961" cx="0" cy="0" rx="1" ry="1" /></g>
<g transform="translate(87.949572 146.410449) rotate(11.245292) scale(6.012919 2.034395)"><ellipse fill="#46412a" fill-opacity="0.501961" cx="0" cy="0" rx="1" ry="1" /></g>
<g transform="translate(255.903287 66.511161) rotate(110.054113) scale(1.000000 3.375319)"><ellipse fill="#e4ddd7" fill-opacity="0.501961" cx="0" cy="0" rx="1" ry="1" /></g>
<g transform="translate(70.474526 67.670411) rotate(108.108771) scale(1.000000 7.075880)"><ellipse fill="#929396" fill-opacity="0.501961" cx="0" cy="0" rx="1" ry="1" /></g>
<g transform="translate(63.429039 160.390696) rotate(137.301087) scale(3.280463 16.615452)"><ellipse fill="#7d7547" fill-opacity="0.501961" cx="0" cy="0" rx="1" ry="1" /></g>
<g transform="translate(71.657333 114.610809) rotate(167.176328) scale(23.375902 1.535006)"><ellipse fill="#485258" fill-opacity="0.501961" cx="0" cy="0" rx="1" ry="1" /></g>
<g transform="translate(211.308080 127.602385) rotate(8.443411) scale(3.698754 1.219260)"><ellipse fill="#010000" fill-opacity="0.501961" cx="0" cy="0" rx="1" ry="1" /></g>
<g transform="translate(30.777201 144.064458) rotate(129.817996) scale(1.000000 7.539577)"><ellipse fill="#686b21" fill-opacity="0.501961" cx="0" cy="0" rx="1" ry="1" /></g>
<g transform="translate(130.768644 156.883365) rotate(341.102245) scale(1.436704 4.219022)"><ellipse fill="#22250f" fill-opacity="0.501961" cx="0" cy="0" rx="1" ry="1" /></g>
<g transform="translate(28.205550 67.592237) rotate(67.166079) scale(3.242297 3.051322)"><ellipse fill="#525019" fill-opacity="0.501961" cx="0" cy="0" rx="1" ry="1" /></g>
<g transform="translate(162.077121 61.644173) rotate(160.688145) scale(6.404648 10.486550)"><ellipse fill="#e5e5df" fill-opacity="0.501961" cx="0" cy="0" rx="1" ry="1" /></g>
<g transform="translate(21.642825 83.323184) rotate(-40.674129) scale(8.337765 1.687492)"><ellipse fill="#464719" fill-opacity="0.501961" cx="0" cy="0" rx="1" ry="1" /></g>
<g transform="translate(42.188934 61.403168) rotate(96.949173) scale(3.218371 11.078175)"><ellipse fill="#57687d" fill-opacity="0.501961" cx="0" cy="0" rx="1" ry="1" /></g>
<g transform="translate(106.236984 132.550782) rotate(-24.068045) scale(2.161815 6.221206)"><ellipse fill="#4d5014" fill-opacity="0.501961" cx="0" cy="0" rx="1" ry="1" /></g>
<g transform="translate(169.082240 161.364503) rotate(251.670014) scale(11.499563 1.851150)"><ellipse fill="#0d0d04" fill-opacity="0.501961" cx="0" cy="0" rx="1" ry="1" /></g>
<g transform="translate(238.808370 114.617390) rotate(341.217066) scale(3.363608 8.267704)"><ellipse fill="#2f3b42" fill-opacity="0.501961" cx="0" cy="0" rx="1" ry="1" /></g>
<g transform="translate(12.605632 105.912639) rotate(3.060121) scale(1.608659 3.993078)"><ellipse fill="#3e4314" fill-opacity="0.501961" cx="0" cy="0" rx="1" ry="1" /></g>
<g transform="translate(53.060321 161.137518) rotate(99.543059) scale(1.440067 6.074678)"><ellipse fill="#3d3527" fill-opacity="0.501961" cx="0" cy="0" rx="1" ry="1" /></g>
<g transform="translate(50.326291 133.464566) rotate(174.296550) scale(3.024855 1.000000)"><ellipse fill="#141710" fill-opacity="0.501961" cx="0" cy="0" rx="1" ry="1" /></g>
<g transform="translate(231.226769 11.411468) rotate(102.375889) scale(1.955130 5.871501)"><ellipse fill="#9f9c99" fill-opacity="0.501961" cx="0" cy="0" rx="1" ry="1" /></g>
<g transform="translate(218.811466 136.716240) rotate(132.270686) scale(2.755858 4.718155)"><ellipse fill="#4b4b1a" fill-opacity="0.501961" cx="0" cy="0" rx="1" ry="1" /></g>
<g transform="translate(205.547865 61.753116) rotate(46.600661) scale(2.413397 5.049723)"><ellipse fill="#4f779b" fill-opacity="0.501961" cx="0" cy="0" rx="1" ry="1" /></g>
<g transform="translate(239.677189 23.686866) rotate(310.195331) scale(4.622644 10.662847)"><ellipse fill="#a6a3a1" fill-opacity="0.501961" cx="0" cy="0" rx="1" ry="1" /></g>
<g transform="translate(180.560073 40.068248) rotate(273.498333) scale(3.841897 23.674890)"><ellipse fill="#7babc2" fill-opacity="0.501961" cx="0" cy="0" rx="1" ry="1" /></g>
<g transform="translate(33.515295 100.086090) rotate(11.937755) scale(6.262305 1.640922)"><ellipse fill="#638095" fill-opacity="0.501961" cx="0" cy="0" rx="1" ry="1" /></g>
<g transform="translate(83.820077 169.000000) rotate(18.428795) scale(17.510919 3.878864)"><ellipse fill="#6b6344" fill-opacity="0.501961" cx="0" cy="0" rx="1" ry="1" /></g>
<g transform="translate(204.078371 154.552475) rotate(71.233759) scale(5.184767 1.000000)"><ellipse fill="#707925" fill-opacity="0.501961" cx="0" cy="0" rx="1" ry="1" /></g>
<g transform="translate(196.039644 139.732909) rotate(196.651193) scale(4.483782 9.271328)"><ellipse fill="#333621" fill-opacity="0.501961" cx="0" cy="0" rx="1" ry="1" /></g>
<g transform="translate(54.279469 80.494574) rotate(375.858499) scale(15.104417 5.268303)"><ellipse fill="#315982" fill-opacity="0.501961" cx="0" cy="0" rx="1" ry="1" /></g>
<g transform="translate(104.247886 0.705027) rotate(178.006702) scale(76.188970 4.099778)"><ellipse fill="#184b69" fill-opacity="0.501961" cx="0" cy="0" rx="1" ry="1" /></g>
<g transform="translate(9.776272 8.355471) rotate(15.741969) scale(16.118342 4.063800)"><ellipse fill="#214f6f" fill-opacity="0.501961" cx="0" cy="0" rx="1" ry="1" /></g>
<g transform="translate(28.582933 135.604547) rotate(305.598078) scale(1.000000 25.199373)"><ellipse fill="#54571f" fill-opacity="0.501961" cx="0" cy="0" rx="1" ry="1" /></g>
<g transform="translate(211.147382 124.552628) rotate(287.571212) scale(1.000000 1.371422)"><ellipse fill="#605f1f" fill-opacity="0.501961" cx="0" cy="0" rx="1" ry="1" /></g>
<g transform="translate(82.241141 157.105939) rotate(379.789360) scale(4.546868 1.000000)"><ellipse fill="#5b543f" fill-opacity="0.501961" cx="0" cy="0" rx="1" ry="1" /></g>
<g transform="translate(153.018336 70.142109) rotate(110.718657) scale(4.100521 7.940393)"><ellipse fill="#9ab4c7" fill-opacity="0.501961" cx="0" cy="0" rx="1" ry="1" /></g>
<g transform="translate(96.201604 73.649354) rotate(92.612852) scale(1.462909 13.437966)"><ellipse fill="#e2e4e1" fill-opacity="0.501961" cx="0" cy="0" rx="1" ry="1" /></g>
<g transform="translate(0.000000 89.726110) rotate(219.451659) scale(1.809410 1.641149)"><ellipse fill="#366489" fill-opacity="0.501961" cx="0" cy="0" rx="1" ry="1" /></g>
<g transform="translate(117.697057 13.040992) rotate(18.819175) scale(5.034594 2.629679)"><ellipse fill="#878e92" fill-opacity="0.501961" cx="0" cy="0" rx="1" ry="1" /></g>
<g transform="translate(241.530928 150.687298) rotate(316.511319) scale(2.881571 1.000000)"><ellipse fill="#495318" fill-opacity="0.501961" cx="0" cy="0" rx="1" ry="1" /></g>
<g transform="translate(186.088366 141.138005) rotate(299.914631) scale(2.243651 4.564094)"><ellipse fill="#848147" fill-opacity="0.501961" cx="0" cy="0" rx="1" ry="1" /></g>
<g transform="translate(125.361451 120.866504) rotate(199.984631) scale(6.914122 2.881884)"><ellipse fill="#2f3e4b" fill-opacity="0.501961" cx="0" cy="0" rx="1" ry="1" /></g>
<g transform="translate(220.004301 65.987769) rotate(297.956726) scale(1.009134 8.676114)"><ellipse fill="#b3bbc3" fill-opacity="0.501961" cx="0" cy="0" rx="1" ry="1" /></g>
<g transform="translate(123.467663 140.321158) rotate(275.772908) scale(1.000000 4.410611)"><ellipse fill="#0e1406" fill-opacity="0.501961" cx="0" cy="0" rx="1" ry="1" /></g>
<g transform="translate(111.822203 94.133840) rotate(183.662207) scale(29.909429 1.166727)"><ellipse fill="#406f94" fill-opacity="0.501961" cx="0" cy="0" rx="1" ry="1" /></g>
<g transform="translate(133.339973 133.432634) rotate(279.524126) scale(1.281767 3.325156)"><ellipse fill="#7f7f34" fill-opacity="0.501961" cx="0" cy="0" rx="1" ry="1" /></g>
<g transform="translate(111.390380 86.514751) rotate(1.077603) scale(5.865720 1.000000)"><ellipse fill="#ced6d7" fill-opacity="0.501961" cx="0" cy="0" rx="1" ry="1" /></g>
<g transform="translate(130.116787 111.219378) rotate(351.337486) scale(4.659250 1.603359)"><ellipse fill="#283747" fill-opacity="0.501961" cx="0" cy="0" rx="1" ry="1" /></g>
<g transform="translate(102.496408 155.938367) rotate(338.704779) scale(7.243886 3.545828)"><ellipse fill="#7a7552" fill-opacity="0.501961" cx="0" cy="0" rx="1" ry="1" /></g>
<g transform="translate(133.307278 121.681932) rotate(159.002004) scale(1.000000 7.030072)"><ellipse fill="#767370" fill-opacity="0.501961" cx="0" cy="0" rx="1" ry="1" /></g>
<g transform="translate(19.400844 164.799162) rotate(417.024864) scale(3.761604 5.960643)"><ellipse fill="#3b3421" fill-opacity="0.501961" cx="0" cy="0" rx="1" ry="1" /></g>
<g transform="translate(99.072429 96.626378) rotate(389.092926) scale(7.705666 1.000000)"><ellipse fill="#205d8b" fill-opacity="0.501961" cx="0" cy="0" rx="1" ry="1" /></g>
<g transform="translate(29.600040 52.765838) rotate(245.683297) scale(1.638979 3.827772)"><ellipse fill="#a2a5ac" fill-opacity="0.501961" cx="0" cy="0" rx="1" ry="1" /></g>
<g transform="translate(145.990027 154.954159) rotate(35.965682) scale(3.312443 4.943960)"><ellipse fill="#040703" fill-opacity="0.501961" cx="0" cy="0" rx="1" ry="1" /></g>
<g transform="translate(69.750721 145.101868) rotate(16.844469) scale(2.725480 5.181372)"><ellipse fill="#635e28" fill-opacity="0.501961" cx="0" cy="0" rx="1" ry="1" /></g>
<g transform="translate(71.098627 32.878132) rotate(86.351068) scale(2.759695 9.540458)"><ellipse fill="#aba9a4" fill-opacity="0.501961" cx="0" cy="0" rx="1" ry="1" /></g>
<g transform="translate(150.380376 158.676558) rotate(88.809209) scale(27.272696 1.000000)"><ellipse fill="#0d1006" fill-opacity="0.501961" cx="0" cy="0" rx="1" ry="1" /></g>
<g transform="translate(194.123055 165.243997) rotate(235.312721) scale(4.571756 3.044573)"><ellipse fill="#656829" fill-opacity="0.501961" cx="0" cy="0" rx="1" ry="1" /></g>
<g transform="translate(250.484323 151.469655) rotate(341.996892) scale(1.000000 9.690303)"><ellipse fill="#61631e" fill-opacity="0.501961" cx="0" cy="0" rx="1" ry="1" /></g>
<g transform="translate(192.946178 67.018091) rotate(145.046382) scale(9.488097 2.527543)"><ellipse fill="#668bab" fill-opacity="0.501961" cx="0" cy="0" rx="1" ry="1" /></g>
<g transform="translate(214.379519 169.000000) rotate(70.013664) scale(6.118952 9.688663)"><ellipse fill="#000000" fill-opacity="0.501961" cx="0" cy="0" rx="1" ry="1" /></g>
<g transform="translate(213.785205 44.591855) rotate(67.998831) scale(1.418681 13.075979)"><ellipse fill="#c3c4c3" fill-opacity="0.501961" cx="0" cy="0" rx="1" ry="1" /></g>
<g transform="translate(10.636466 116.067806) rotate(0.979819) scale(5.151666 1.000000)"><ellipse fill="#4a4f19" fill-opacity="0.501961" cx="0" cy="0" rx="1" ry="1" /></g>
<g transform="translate(72.669644 129.499298) rotate(269.328573) scale(2.835423 5.344839)"><ellipse fill="#878448" fill-opacity="0.501961" cx="0" cy="0" rx="1" ry="1" /></g>
<g transform="translate(60.723305 98.590402) rotate(307.997420) scale(2.491523 9.300939)"><ellipse fill="#5c7996" fill-opacity="0.501961" cx="0" cy="0" rx="1" ry="1" /></g>
<g transform="translate(106.540831 117.841556) rotate(73.403498) scale(4.017046 1.000000)"><ellipse fill="#8b856f" fill-opacity="0.501961" cx="0" cy="0" rx="1" ry="1" /></g>
<g transform="translate(85.901576 108.119615) rotate(240.202441) scale(1.617612 5.050333)"><ellipse fill="#b9bab4" fill-opacity="0.501961" cx="0" cy="0" rx="1" ry="1" /></g>
<g transform="translate(221.952499 5.606331) rotate(309.382413) scale(2.076872 5.801401)"><ellipse fill="#3f5d74" fill-opacity="0.501961" cx="0" cy="0" rx="1" ry="1" /></g>
<g transform="translate(147.613463 137.802394) rotate(355.087347) scale(1.000000 9.951122)"><ellipse fill="#525120" fill-opacity="0.501961" cx="0" cy="0" rx="1" ry="1" /></g>
<g transform="translate(145.449225 78.991374) rotate(61.206071) scale(4.782355 9.914438)"><ellipse fill="#679fc3" fill-opacity="0.501961" cx="0" cy="0" rx="1" ry="1" /></g>
</g>
</svg>