<svg xmlns="http://www.w3.org/2000/svg" version="1.1" width="1024" height="680">
<rect x="0" y="0" width="1024" height="680" fill="#897e81" />
<g transform="scale(4.000000) translate(0.5 0.5)">
<g transform="translate(81.677335 0.000000) rotate(94.861510) scale(51.723481 204.501337)"><ellipse fill="#ffffff" fill-opacity="0.501961" cx="0" cy="0" rx="1" ry="1" /></g>
<g transform="translate(45.890017 88.749183) rotate(75.458921) scale(41.046137 81.702606)"><ellipse fill="#000000" fill-opacity="0.501961" cx="0" cy="0" rx="1" ry="1" /></g>
<g transform="translate(232.760005 126.627800) rotate(465.422496) scale(70.240574 84.361025)"><ellipse fill="#310d0a" fill-opacity="0.501961" cx="0" cy="0" rx="1" ry="1" /></g>
<g transform="translate(182.306842 23.001193) rotate(-14.201717) scale(65.480289 37.368868)"><ellipse fill="#ffffff" fill-opacity="0.501961" cx="0" cy="0" rx="1" ry="1" /></g>
<g transform="translate(166.723330 129.860407) rotate(179.645163) scale(65.436226 8.250839)"><ellipse fill="#fff4ff" fill-opacity="0.501961" cx="0" cy="0" rx="1" ry="1" /></g>
<g transform="translate(34.706804 160.149306) rotate(-2.993150) scale(85.727653 17.380613)"><ellipse fill="#000817" fill-opacity="0.501961" cx="0" cy="0" rx="1" ry="1" /></g>
<g transform="translate(34.247138 27.061856) rotate(262.102146) scale(24.541850 118.941403)"><ellipse fill="#ffffff" fill-opacity="0.501961" cx="0" cy="0" rx="1" ry="1" /></g>
<g transform="translate(128.619126 103.957544) rotate(272.156542) scale(31.495091 14.747763)"><ellipse fill="#ffffff" fill-opacity="0.501961" cx="0" cy="0" rx="1" ry="1" /></g>
<g transform="translate(158.743482 82.926709) rotate(305.097858) scale(9.687378 58.892719)"><ellipse fill="#531708" fill-opacity="0.501961" cx="0" cy="0" rx="1" ry="1" /></g>
<g transform="translate(228.790397 58.887609) rotate(66.478076) scale(14.170314 71.331150)"><ellipse fill="#ac6428" fill-opacity="0.501961" cx="0" cy="0" rx="1" ry="1" /></g>
<g transform="translate(198.495592 156.650818) rotate(4.287181) scale(67.808364 9.926761)"><ellipse fill="#03152a" fill-opacity="0.501961" cx="0" cy="0" rx="1" ry="1" /></g>
<g transform="translate(219.292367 103.068101) rotate(86.925845) scale(23.066324 79.176892)"><ellipse fill="#321b25" fill-opacity="0.501961" cx="0" cy="0" rx="1" ry="1" /></g>
<g transform="translate(50.674133 106.537149) rotate(96.291092) scale(19.818478 55.096140)"><ellipse fill="#0a142f" fill-opacity="0.501961" cx="0" cy="0" rx="1" ry="1" /></g>
<g transform="translate(66.116562 132.850665) rotate(268.521225) scale(7.102988 75.980323)"><ellipse fill="#9dc0d3" fill-opacity="0.501961" cx="0" cy="0" rx="1" ry="1" /></g>
<g transform="translate(179.733803 35.432979) rotate(261.733667) scale(27.262095 51.416585)"><ellipse fill="#fffefa" fill-opacity="0.501961" cx="0" cy="0" rx="1" ry="1" /></g>
<g transform="translate(130.816974 121.147359) rotate(128.841001) scale(12.900674 32.256093)"><ellipse fill="#e9d7df" fill-opacity="0.501961" cx="0" cy="0" rx="1" ry="1" /></g>
<g transform="translate(130.399637 96.507123) rotate(358.786440) scale(11.891384 22.128310)"><ellipse fill="#ffffff" fill-opacity="0.501961" cx="0" cy="0" rx="1" ry="1" /></g>
<g transform="translate(159.447147 129.983824) rotate(270.051688) scale(10.552864 29.805312)"><ellipse fill="#deced3" fill-opacity="0.501961" cx="0" cy="0" rx="1" ry="1" /></g>
<g transform="translate(201.563459 138.887273) rotate(5.601248) scale(15.675295 9.061082)"><ellipse fill="#94645d" fill-opacity="0.501961" cx="0" cy="0" rx="1" ry="1" /></g>
<g transform="translate(243.700265 56.887793) rotate(144.945682) scale(14.218536 25.691716)"><ellipse fill="#6d4121" fill-opacity="0.501961" cx="0" cy="0" rx="1" ry="1" /></g>
<g transform="translate(234.738991 126.258802) rotate(187.737983) scale(25.624959 2.406540)"><ellipse fill="#bab8cf" fill-opacity="0.501961" cx="0" cy="0" rx="1" ry="1" /></g>
<g transform="translate(232.790013 6.238934) rotate(48.140063) scale(36.038360 22.152344)"><ellipse fill="#fffbf6" fill-opacity="0.501961" cx="0" cy="0" rx="1" ry="1" /></g>
<g transform="translate(108.551027 15.841017) rotate(183.541920) scale(123.216961 29.563645)"><ellipse fill="#f4eff6" fill-opacity="0.501961" cx="0" cy="0" rx="1" ry="1" /></g>
<g transform="translate(158.008839 81.772494) rotate(280.381531) scale(21.394368 14.492926)"><ellipse fill="#672d1b" fill-opacity="0.501961" cx="0" cy="0" rx="1" ry="1" /></g>
<g transform="translate(142.451511 161.021709) rotate(92.538242) scale(5.855415 11.033693)"><ellipse fill="#f6e4d9" fill-opacity="0.501961" cx="0" cy="0" rx="1" ry="1" /></g>
<g transform="translate(42.523453 79.410463) rotate(202.182680) scale(39.286742 28.158223)"><ellipse fill="#2c2633" fill-opacity="0.501961" cx="0" cy="0" rx="1" ry="1" /></g>
<g transform="translate(17.907594 169.000000) rotate(288.454100) scale(26.582850 39.058487)"><ellipse fill="#20212e" fill-opacity="0.501961" cx="0" cy="0" rx="1" ry="1" /></g>
<g transform="translate(106.920548 59.063325) rotate(22.535125) scale(28.178158 11.400130)"><ellipse fill="#703c30" fill-opacity="0.501961" cx="0" cy="0" rx="1" ry="1" /></g>
<g transform="translate(13.792546 29.305748) rotate(110.997680) scale(28.544415 19.684192)"><ellipse fill="#dee5f5" fill-opacity="0.501961" cx="0" cy="0" rx="1" ry="1" /></g>
<g transform="translate(92.328811 83.521479) rotate(291.169813) scale(16.335374 28.364343)"><ellipse fill="#3d2631" fill-opacity="0.501961" cx="0" cy="0" rx="1" ry="1" /></g>
<g transform="translate(191.797985 66.551849) rotate(349.231353) scale(53.139886 6.541859)"><ellipse fill="#b87a47" fill-opacity="0.501961" cx="0" cy="0" rx="1" ry="1" /></g>
<g transform="translate(94.992136 160.321807) rotate(135.463336) scale(3.793107 18.746028)"><ellipse fill="#a79f9e" fill-opacity="0.501961" cx="0" cy="0" rx="1" ry="1" /></g>
<g transform="translate(136.111699 54.009639) rotate(193.456808) scale(5.152955 9.121978)"><ellipse fill="#edafa0" fill-opacity="0.501961" cx="0" cy="0" rx="1" ry="1" /></g>
<g transform="translate(198.312066 135.130520) rotate(84.547896) scale(4.881199 8.794836)"><ellipse fill="#301422" fill-opacity="0.501961" cx="0" cy="0" rx="1" ry="1" /></g>
<g transform="translate(185.127423 138.744713) rotate(193.865905) scale(27.058046 3.174722)"><ellipse fill="#dec0ba" fill-opacity="0.501961" cx="0" cy="0" rx="1" ry="1" /></g>
<g transform="translate(97.591192 114.929698) rotate(227.563677) scale(11.317455 10.908558)"><ellipse fill="#1b1e31" fill-opacity="0.501961" cx="0" cy="0" rx="1" ry="1" /></g>
<g transform="translate(46.772123 135.920823) rotate(166.363108) scale(29.142248 6.238286)"><ellipse fill="#b4c0cd" fill-opacity="0.501961" cx="0" cy="0" rx="1" ry="1" /></g>
<g transform="translate(76.706601 143.089420) rotate(92.621018) scale(3.420610 28.935577)"><ellipse fill="#2c3240" fill-opacity="0.501961" cx="0" cy="0" rx="1" ry="1" /></g>
<g transform="translate(7.091171 128.159581) rotate(265.135796) scale(8.148307 27.692303)"><ellipse fill="#1d4f71" fill-opacity="0.501961" cx="0" cy="0" rx="1" ry="1" /></g>
<g transform="translate(188.982559 167.805391) rotate(315.287730) scale(25.764170 28.088641)"><ellipse fill="#252432" fill-opacity="0.501961" cx="0" cy="0" rx="1" ry="1" /></g>
<g transform="translate(162.362382 92.907298) rotate(245.840352) scale(25.497655 19.201712)"><ellipse fill="#4a282d" fill-opacity="0.501961" cx="0" cy="0" rx="1" ry="1" /></g>
<g transform="translate(104.988184 160.988785) rotate(167.702302) scale(28.085106 9.057163)"><ellipse fill="#6d5d56" fill-opacity="0.501961" cx="0" cy="0" rx="1" ry="1" /></g>
<g transform="translate(119.834152 105.937323) rotate(249.743511) scale(9.409200 14.394784)"><ellipse fill="#f8edf1" fill-opacity="0.501961" cx="0" cy="0" rx="1" ry="1" /></g>
<g transform="translate(54.544531 149.443125) rotate(57.414735) scale(13.162168 5.778880)"><ellipse fill="#8494a5" fill-opacity="0.501961" cx="0" cy="0" rx="1" ry="1" /></g>
<g transform="translate(252.887829 83.800103) rotate(189.615401) scale(15.260001 39.216899)"><ellipse fill="#352026" fill-opacity="0.501961" cx="0" cy="0" rx="1" ry="1" /></g>
<g transform="translate(91.718413 154.656944) rotate(191.516303) scale(8.656285 1.609352)"><ellipse fill="#dadff2" fill-opacity="0.501961" cx="0" cy="0" rx="1" ry="1" /></g>
<g transform="translate(120.461838 149.839703) rotate(251.265849) scale(4.579560 14.289910)"><ellipse fill="#bbafae" fill-opacity="0.501961" cx="0" cy="0" rx="1" ry="1" /></g>
<g transform="translate(135.879200 124.201612) rotate(360.777260) scale(27.321438 4.145776)"><ellipse fill="#af9b9e" fill-opacity="0.501961" cx="0" cy="0" rx="1" ry="1" /></g>
<g transform="translate(160.511514 169.894073) rotate(296.878133) scale(3.675995 15.815286)"><ellipse fill="#edd4bf" fill-opacity="0.501961" cx="0" cy="0" rx="1" ry="1" /></g>
<g transform="translate(74.544934 56.733527) rotate(121.972145) scale(14.458515 11.089726)"><ellipse fill="#452d33" fill-opacity="0.501961" cx="0" cy="0" rx="1" ry="1" /></g>
<g transform="translate(58.510554 19.682102) rotate(142.685059) scale(27.054779 29.181659)"><ellipse fill="#ebeaf4" fill-opacity="0.501961" cx="0" cy="0" rx="1" ry="1" /></g>
<g transform="translate(118.853356 37.292103) rotate(6.364355) scale(20.330625 11.151665)"><ellipse fill="#fff8f8" fill-opacity="0.501961" cx="0" cy="0" rx="1" ry="1" /></g>
<g transform="translate(218.724823 106.460795) rotate(269.382227) scale(12.534530 76.360665)"><ellipse fill="#341f27" fill-opacity="0.501961" cx="0" cy="0" rx="1" ry="1" /></g>
<g transform="translate(130.569335 84.477777) rotate(89.670909) scale(11.239292 7.736317)"><ellipse fill="#ffffff" fill-opacity="0.501961" cx="0" cy="0" rx="1" ry="1" /></g>
<g transform="translate(182.185724 47.294625) rotate(223.230474) scale(9.351394 23.784561)"><ellipse fill="#feefe8" fill-opacity="0.501961" cx="0" cy="0" rx="1" ry="1" /></g>
<g transform="translate(132.686295 166.661632) rotate(167.663010) scale(2.601677 7.355864)"><ellipse fill="#ffe8d3" fill-opacity="0.501961" cx="0" cy="0" rx="1" ry="1" /></g>
<g transform="translate(167.216440 75.948887) rotate(292.615945) scale(12.141446 28.408198)"><ellipse fill="#915637" fill-opacity="0.501961" cx="0" cy="0" rx="1" ry="1" /></g>
<g transform="translate(233.981806 44.886375) rotate(329.350227) scale(13.614038 7.755410)"><ellipse fill="#bd8643" fill-opacity="0.501961" cx="0" cy="0" rx="1" ry="1" /></g>
<g transform="translate(131.736971 13.680716) rotate(267.390561) scale(11.305942 37.519897)"><ellipse fill="#e1d9d9" fill-opacity="0.501961" cx="0" cy="0" rx="1" ry="1" /></g>
<g transform="translate(243.103487 145.689796) rotate(101.180665) scale(3.839638 10.560982)"><ellipse fill="#091c2f" fill-opacity="0.501961" cx="0" cy="0" rx="1" ry="1" /></g>
<g transform="translate(84.113167 159.226355) rotate(179.478470) scale(44.828061 2.280490)"><ellipse fill="#272a3a" fill-opacity="0.501961" cx="0" cy="0" rx="1" ry="1" /></g>
<g transform="translate(63.619015 145.210332) rotate(167.762907) scale(17.802849 2.891163)"><ellipse fill="#161c2e" fill-opacity="0.501961" cx="0" cy="0" rx="1" ry="1" /></g>
<g transform="translate(43.779122 75.178013) rotate(189.383880) scale(10.644398 29.791087)"><ellipse fill="#2c2935" fill-opacity="0.501961" cx="0" cy="0" rx="1" ry="1" /></g>
<g transform="translate(136.513841 52.037672) rotate(176.746092) scale(1.578179 4.460920)"><ellipse fill="#a6232c" fill-opacity="0.501961" cx="0" cy="0" rx="1" ry="1" /></g>
<g transform="translate(129.852034 93.707845) rotate(46.008463) scale(17.054760 6.398232)"><ellipse fill="#fff9f6" fill-opacity="0.501961" cx="0" cy="0" rx="1" ry="1" /></g>
<g transform="translate(150.984928 156.701643) rotate(212.887193) scale(9.247923 4.695016)"><ellipse fill="#2a2835" fill-opacity="0.501961" cx="0" cy="0" rx="1" ry="1" /></g>
<g transform="translate(115.261500 142.301593) rotate(76.216450) scale(1.665505 5.417507)"><ellipse fill="#000013" fill-opacity="0.501961" cx="0" cy="0" rx="1" ry="1" /></g>
<g transform="translate(228.456474 78.244894) rotate(376.836653) scale(16.834799 9.913928)"><ellipse fill="#6d4331" fill-opacity="0.501961" cx="0" cy="0" rx="1" ry="1" /></g>
<g transform="translate(6.547868 74.957178) rotate(233.511836) scale(18.916055 17.761963)"><ellipse fill="#40393d" fill-opacity="0.501961" cx="0" cy="0" rx="1" ry="1" /></g>
<g transform="translate(0.000000 29.525563) rotate(-14.755132) scale(81.557709 26.657249)"><ellipse fill="#e3e4ee" fill-opacity="0.501961" cx="0" cy="0" rx="1" ry="1" /></g>
<g transform="translate(182.499787 121.725276) rotate(14.798953) scale(17.980413 2.393481)"><ellipse fill="#8d7780" fill-opacity="0.501961" cx="0" cy="0" rx="1" ry="1" /></g>
<g transform="translate(144.465014 135.508902) rotate(85.916425) scale(3.025613 32.368222)"><ellipse fill="#d4d2de" fill-opacity="0.501961" cx="0" cy="0" rx="1" ry="1" /></g>
<g transform="translate(35.618928 56.495423) rotate(188.060377) scale(19.659216 5.842382)"><ellipse fill="#47393a" fill-opacity="0.501961" cx="0" cy="0" rx="1" ry="1" /></g>
<g transform="translate(203.114233 140.385557) rotate(172.846160) scale(13.342341 1.000000)"><ellipse fill="#e9b99b" fill-opacity="0.501961" cx="0" cy="0" rx="1" ry="1" /></g>
<g transform="translate(109.013512 120.647045) rotate(99.388701) scale(2.126615 15.562179)"><ellipse fill="#424252" fill-opacity="0.501961" cx="0" cy="0" rx="1" ry="1" /></g>
<g transform="translate(92.836516 94.018880) rotate(174.184179) scale(26.882277 10.093925)"><ellipse fill="#3e2d34" fill-opacity="0.501961" cx="0" cy="0" rx="1" ry="1" /></g>
<g transform="translate(134.365648 55.595815) rotate(-28.744217) scale(2.871958 4.265848)"><ellipse fill="#f5ffff" fill-opacity="0.501961" cx="0" cy="0" rx="1" ry="1" /></g>
<g transform="translate(42.072958 137.162556) rotate(181.527899) scale(12.957614 2.613955)"><ellipse fill="#e9dfe6" fill-opacity="0.501961" cx="0" cy="0" rx="1" ry="1" /></g>
<g transform="translate(148.767537 145.923887) rotate(343.761506) scale(6.319293 4.116931)"><ellipse fill="#b8a096" fill-opacity="0.501961" cx="0" cy="0" rx="1" ry="1" /></g>
<g transform="translate(26.178767 144.626561) rotate(162.853527) scale(13.312630 1.862592)"><ellipse fill="#698e9f" fill-opacity="0.501961" cx="0" cy="0" rx="1" ry="1" /></g>
<g transform="translate(104.578382 134.929821) rotate(298.206864) scale(3.861958 7.034701)"><ellipse fill="#4c7d8b" fill-opacity="0.501961" cx="0" cy="0" rx="1" ry="1" /></g>
<g transform="translate(227.267995 28.502927) rotate(86.932470) scale(6.199383 72.077739)"><ellipse fill="#fffcf7" fill-opacity="0.501961" cx="0" cy="0" rx="1" ry="1" /></g>
<g transform="translate(126.270033 148.144033) rotate(83.581065) scale(5.294944 3.855494)"><ellipse fill="#dcd0d1" fill-opacity="0.501961" cx="0" cy="0" rx="1" ry="1" /></g>
<g transform="translate(162.989997 98.582353) rotate(221.385161) scale(15.310051 26.788269)"><ellipse fill="#4b2c31" fill-opacity="0.501961" cx="0" cy="0" rx="1" ry="1" /></g>
<g transform="translate(171.151360 52.589185) rotate(274.373847) scale(8.754374 28.628529)"><ellipse fill="#fef2f1" fill-opacity="0.501961" cx="0" cy="0" rx="1" ry="1" /></g>
<g transform="translate(96.470532 163.526919) rotate(207.010783) scale(2.624407 11.557261)"><ellipse fill="#1e1f2e" fill-opacity="0.501961" cx="0" cy="0" rx="1" ry="1" /></g>
<g transform="translate(86.876646 39.678008) rotate(143.545332) scale(7.361895 5.867328)"><ellipse fill="#f8f0f0" fill-opacity="0.501961" cx="0" cy="0" rx="1" ry="1" /></g>
<g transform="translate(209.176024 125.179315) rotate(0.319408) scale(24.880579 3.889072)"><ellipse fill="#897984" fill-opacity="0.501961" cx="0" cy="0" rx="1" ry="1" /></g>
<g transform="translate(116.644020 61.923237) rotate(238.657047) scale(17.445493 6.164787)"><ellipse fill="#835543" fill-opacity="0.501961" cx="0" cy="0" rx="1" ry="1" /></g>
<g transform="translate(118.375919 151.229067) rotate(83.468955) scale(1.000000 6.001968)"><ellipse fill="#000015" fill-opacity="0.501961" cx="0" cy="0" rx="1" ry="1" /></g>
<g transform="translate(60.501977 132.085791) rotate(359.553189) scale(45.903707 2.097080)"><ellipse fill="#728f9b" fill-opacity="0.501961" cx="0" cy="0" rx="1" ry="1" /></g>
<g transform="translate(57.699179 156.764005) rotate(226.720704) scale(3.193852 2.142479)"><ellipse fill="#c9c5c9" fill-opacity="0.501961" cx="0" cy="0" rx="1" ry="1" /></g>
<g transform="translate(35.809679 113.191486) rotate(1.899923) scale(69.512638 11.622995)"><ellipse fill="#1f273a" fill-opacity="0.501961" cx="0" cy="0" rx="1" ry="1" /></g>
<g transform="translate(136.753547 148.715096) rotate(226.445548) scale(7.028711 6.117208)"><ellipse fill="#464146" fill-opacity="0.501961" cx="0" cy="0" rx="1" ry="1" /></g>
<g transform="translate(83.516935 152.774830) rotate(112.173642) scale(1.581073 14.261316)"><ellipse fill="#bdada6" fill-opacity="0.501961" cx="0" cy="0" rx="1" ry="1" /></g>
<g transform="translate(200.965714 59.401182) rotate(334.775011) scale(42.251039 1.936541)"><ellipse fill="#c19255" fill-opacity="0.501961" cx="0" cy="0" rx="1" ry="1" /></g>
<g transform="translate(214.314826 84.111360) rotate(105.034336) scale(14.667521 5.218643)"><ellipse fill="#3c2023" fill-opacity="0.501961" cx="0" cy="0" rx="1" ry="1" /></g>
<g transform="translate(123.333136 117.253915) rotate(88.994413) scale(3.038087 19.284140)"><ellipse fill="#d7c8ca" fill-opacity="0.501961" cx="0" cy="0" rx="1" ry="1" /></g>
<g transform="translate(204.080187 79.134767) rotate(337.855607) scale(4.117278 1.000000)"><ellipse fill="#f5e5d1" fill-opacity="0.501961" cx="0" cy="0" rx="1" ry="1" /></g>
<g transform="translate(67.654307 142.940342) rotate(167.849594) scale(10.031741 5.706789)"><ellipse fill="#322a30" fill-opacity="0.501961" cx="0" cy="0" rx="1" ry="1" /></g>
</g>
</svg>