<svg xmlns="http://www.w3.org/2000/svg" version="1.1" width="1024" height="680">
<rect x="0" y="0" width="1024" height="680" fill="#55686a" />
<g transform="scale(4.000000) translate(0.5 0.5)">
<g transform="translate(161.046087 47.939498) rotate(174.331917) scale(106.548920 30.927916)"><ellipse fill="#ccefff" fill-opacity="0.501961" cx="0" cy="0" rx="1" ry="1" /></g>
<g transform="translate(214.202874 140.591985) rotate(173.533677) scale(118.202366 49.480357)"><ellipse fill="#050000" fill-opacity="0.501961" cx="0" cy="0" rx="1" ry="1" /></g>
<g transform="translate(15.736247 146.158245) rotate(176.346720) scale(25.257461 95.048554)"><ellipse fill="#000000" fill-opacity="0.501961" cx="0" cy="0" rx="1" ry="1" /></g>
<g transform="translate(95.394581 44.506588) rotate(101.135838) scale(19.456977 97.598105)"><ellipse fill="#c3cad0" fill-opacity="0.501961" cx="0" cy="0" rx="1" ry="1" /></g>
<g transform="translate(149.116434 85.350042) rotate(80.359998) scale(15.760063 124.830758)"><ellipse fill="#5592cd" fill-opacity="0.501961" cx="0" cy="0" rx="1" ry="1" /></g>
<g transform="translate(111.218951 150.711005) rotate(185.569865) scale(222.594300 30.163863)"><ellipse fill="#413800" fill-opacity="0.501961" cx="0" cy="0" rx="1" ry="1" /></g>
<g transform="translate(131.171532 14.553254) rotate(281.149194) scale(19.511041 77.705407)"><ellipse fill="#14679d" fill-opacity="0.501961" cx="0" cy="0" rx="1" ry="1" /></g>
<g transform="translate(239.742067 133.014182) rotate(225.230374) scale(17.704835 56.765181)"><ellipse fill="#000000" fill-opacity="0.501961" cx="0" cy="0" rx="1" ry="1" /></g>
<g transform="translate(64.219453 108.820565) rotate(265.408820) scale(4.853857 35.113492)"><ellipse fill="#e6d2b1" fill-opacity="0.501961" cx="0" cy="0" rx="1" ry="1" /></g>
<g transform="translate(103.606902 71.854654) rotate(24.781953) scale(33.412663 12.967786)"><ellipse fill="#cedbe4" fill-opacity="0.501961" cx="0" cy="0" rx="1" ry="1" /></g>
<g transform="translate(7.572163 128.221982) rotate(99.502518) scale(80.182874 15.945618)"><ellipse fill="#0d0b00" fill-opacity="0.501961" cx="0" cy="0" rx="1" ry="1" /></g>
<g transform="translate(83.294745 169.000000) rotate(182.622069) scale(21.217578 39.901671)"><ellipse fill="#968849" fill-opacity="0.501961" cx="0" cy="0" rx="1" ry="1" /></g>
<g transform="translate(172.469941 58.572509) rotate(80.408676) scale(8.925607 37.950753)"><ellipse fill="#f0f0e9" fill-opacity="0.501961" cx="0" cy="0" rx="1" ry="1" /></g>
<g transform="translate(52.749118 77.406040) rotate(-44.178447) scale(20.158737 32.622366)"><ellipse fill="#255489" fill-opacity="0.501961" cx="0" cy="0" rx="1" ry="1" /></g>
<g transform="translate(241.759402 25.992036) rotate(286.366750) scale(13.830482 60.438114)"><ellipse fill="#90949e" fill-opacity="0.501961" cx="0" cy="0" rx="1" ry="1" /></g>
<g transform="translate(83.619947 26.510142) rotate(191.224902) scale(50.943623 15.858618)"><ellipse fill="#668ea4" fill-opacity="0.501961" cx="0" cy="0" rx="1" ry="1" /></g>
<g transform="translate(203.453689 81.039329) rotate(268.275840) scale(11.332745 56.996581)"><ellipse fill="#1a63a1" fill-opacity="0.501961" cx="0" cy="0" rx="1" ry="1" /></g>
<g transform="translate(70.410298 0.000000) rotate(-0.788447) scale(107.913025 9.108444)"><ellipse fill="#013c65" fill-opacity="0.501961" cx="0" cy="0" rx="1" ry="1" /></g>
<g transform="translate(29.146806 28.656976) rotate(254.252743) scale(18.752720 46.780327)"><ellipse fill="#888587" fill-opacity="0.501961" cx="0" cy="0" rx="1" ry="1" /></g>
<g transform="translate(187.859224 162.792657) rotate(161.441761) scale(7.620411 32.925698)"><ellipse fill="#818242" fill-opacity="0.501961" cx="0" cy="0" rx="1" ry="1" /></g>
<g transform="translate(31.929556 103.683174) rotate(80.864780) scale(46.031577 5.498685)"><ellipse fill="#5e5b19" fill-opacity="0.501961" cx="0" cy="0" rx="1" ry="1" /></g>
<g transform="translate(119.252965 121.083401) rotate(273.335802) scale(15.533728 31.591565)"><ellipse fill="#4d5147" fill-opacity="0.501961" cx="0" cy="0" rx="1" ry="1" /></g>
<g transform="translate(29.256293 19.437408) rotate(26.250696) scale(14.206381 8.696767)"><ellipse fill="#394b5a" fill-opacity="0.501961" cx="0" cy="0" rx="1" ry="1" /></g>
<g transform="translate(220.385060 52.547061) rotate(110.077259) scale(13.578295 12.686207)"><ellipse fill="#d9d4d0" fill-opacity="0.501961" cx="0" cy="0" rx="1" ry="1" /></g>
<g transform="translate(133.846522 85.001452) rotate(32.022297) scale(23.642608 11.344614)"><ellipse fill="#6fa5cb" fill-opacity="0.501961" cx="0" cy="0" rx="1" ry="1" /></g>
<g transform="translate(74.067035 52.833846) rotate(113.898035) scale(10.301347 39.537762)"><ellipse fill="#d1cec6" fill-opacity="0.501961" cx="0" cy="0" rx="1" ry="1" /></g>
<g transform="translate(80.041428 118.367873) rotate(77.154682) scale(7.674451 23.205553)"><ellipse fill="#1f2930" fill-opacity="0.501961" cx="0" cy="0" rx="1" ry="1" /></g>
<g transform="translate(177.450212 114.461728) rotate(214.351172) scale(25.990677 18.729558)"><ellipse fill="#193043" fill-opacity="0.501961" cx="0" cy="0" rx="1" ry="1" /></g>
<g transform="translate(51.822002 107.184717) rotate(137.476561) scale(13.663780 10.177556)"><ellipse fill="#a9adaa" fill-opacity="0.501961" cx="0" cy="0" rx="1" ry="1" /></g>
<g transform="translate(195.926541 96.681043) rotate(355.084327) scale(43.510408 5.229608)"><ellipse fill="#4c5555" fill-opacity="0.501961" cx="0" cy="0" rx="1" ry="1" /></g>
<g transform="translate(55.216979 87.297232) rotate(326.359006) scale(28.276384 10.254711)"><ellipse fill="#295e8b" fill-opacity="0.501961" cx="0" cy="0" rx="1" ry="1" /></g>
<g transform="translate(163.662740 58.642678) rotate(292.103083) scale(10.961404 17.247901)"><ellipse fill="#f1ebe0" fill-opacity="0.501961" cx="0" cy="0" rx="1" ry="1" /></g>
<g transform="translate(174.538468 73.717921) rotate(67.183456) scale(3.688052 39.065011)"><ellipse fill="#31719d" fill-opacity="0.501961" cx="0" cy="0" rx="1" ry="1" /></g>
<g transform="translate(59.107756 136.320507) rotate(251.825887) scale(14.713684 8.540605)"><ellipse fill="#292500" fill-opacity="0.501961" cx="0" cy="0" rx="1" ry="1" /></g>
<g transform="translate(150.024644 151.804921) rotate(153.112703) scale(8.265863 27.870533)"><ellipse fill="#0c1107" fill-opacity="0.501961" cx="0" cy="0" rx="1" ry="1" /></g>
<g transform="translate(172.156263 36.798982) rotate(0.808196) scale(61.460201 6.161761)"><ellipse fill="#70a8c4" fill-opacity="0.501961" cx="0" cy="0" rx="1" ry="1" /></g>
<g transform="translate(76.417581 159.902098) rotate(268.483401) scale(13.500132 34.720091)"><ellipse fill="#79713d" fill-opacity="0.501961" cx="0" cy="0" rx="1" ry="1" /></g>
<g transform="translate(83.356799 93.864355) rotate(268.981590) scale(10.798628 25.473840)"><ellipse fill="#2f6189" fill-opacity="0.501961" cx="0" cy="0" rx="1" ry="1" /></g>
<g transform="translate(245.310999 137.957455) rotate(65.927614) scale(13.575014 27.295669)"><ellipse fill="#000000" fill-opacity="0.501961" cx="0" cy="0" rx="1" ry="1" /></g>
<g transform="translate(249.424411 101.787891) rotate(327.850284) scale(64.442336 16.568609)"><ellipse fill="#1a2826" fill-opacity="0.501961" cx="0" cy="0" rx="1" ry="1" /></g>
<g transform="translate(136.826771 116.661483) rotate(116.475370) scale(9.874706 5.222322)"><ellipse fill="#7d7c74" fill-opacity="0.501961" cx="0" cy="0" rx="1" ry="1" /></g>
<g transform="translate(56.924153 15.682207) rotate(364.566706) scale(12.333094 8.515079)"><ellipse fill="#b2a596" fill-opacity="0.501961" cx="0" cy="0" rx="1" ry="1" /></g>
<g transform="translate(83.622050 20.714611) rotate(63.762629) scale(16.910821 7.905897)"><ellipse fill="#246a92" fill-opacity="0.501961" cx="0" cy="0" rx="1" ry="1" /></g>
<g transform="translate(0.000000 146.426601) rotate(328.194531) scale(18.046646 23.114141)"><ellipse fill="#000000" fill-opacity="0.501961" cx="0" cy="0" rx="1" ry="1" /></g>
<g transform="translate(195.537627 19.991600) rotate(351.834424) scale(30.801635 3.206421)"><ellipse fill="#396a88" fill-opacity="0.501961" cx="0" cy="0" rx="1" ry="1" /></g>
<g transform="translate(242.358768 23.722368) rotate(94.827347) scale(6.202079 19.456408)"><ellipse fill="#bdb1a7" fill-opacity="0.501961" cx="0" cy="0" rx="1" ry="1" /></g>
<g transform="translate(144.667736 57.359335) rotate(117.289518) scale(23.542194 8.686021)"><ellipse fill="#cad0cf" fill-opacity="0.501961" cx="0" cy="0" rx="1" ry="1" /></g>
<g transform="translate(255.000000 67.899567) rotate(68.692859) scale(15.536056 29.632833)"><ellipse fill="#37608f" fill-opacity="0.501961" cx="0" cy="0" rx="1" ry="1" /></g>
<g transform="translate(118.484289 139.004344) rotate(11.421797) scale(3.212359 7.599315)"><ellipse fill="#a19a5f" fill-opacity="0.501961" cx="0" cy="0" rx="1" ry="1" /></g>
<g transform="translate(143.490699 19.764876) rotate(357.094409) scale(42.379288 6.674624)"><ellipse fill="#2e749b" fill-opacity="0.501961" cx="0" cy="0" rx="1" ry="1" /></g>
<g transform="translate(183.998407 143.549841) rotate(30.362840) scale(30.804171 5.750079)"><ellipse fill="#55582d" fill-opacity="0.501961" cx="0" cy="0" rx="1" ry="1" /></g>
<g transform="translate(220.461941 32.576982) rotate(-4.136309) scale(26.276357 5.093747)"><ellipse fill="#5585a2" fill-opacity="0.501961" cx="0" cy="0" rx="1" ry="1" /></g>
<g transform="translate(109.604658 13.697338) rotate(3.679502) scale(21.725524 2.858094)"><ellipse fill="#81898f" fill-opacity="0.501961" cx="0" cy="0" rx="1" ry="1" /></g>
<g transform="translate(109.435498 109.267977) rotate(130.436933) scale(5.300749 9.959347)"><ellipse fill="#a49883" fill-opacity="0.501961" cx="0" cy="0" rx="1" ry="1" /></g>
<g transform="translate(9.270860 33.753619) rotate(252.841627) scale(25.143055 4.311590)"><ellipse fill="#868a8d" fill-opacity="0.501961" cx="0" cy="0" rx="1" ry="1" /></g>
<g transform="translate(117.751304 169.000000) rotate(184.342791) scale(15.546892 5.704342)"><ellipse fill="#000300" fill-opacity="0.501961" cx="0" cy="0" rx="1" ry="1" /></g>
<g transform="translate(60.196859 110.668795) rotate(346.490444) scale(15.595856 5.114760)"><ellipse fill="#c6c2b8" fill-opacity="0.501961" cx="0" cy="0" rx="1" ry="1" /></g>
<g transform="translate(138.501763 156.935016) rotate(161.628138) scale(3.180596 30.399304)"><ellipse fill="#68701d" fill-opacity="0.501961" cx="0" cy="0" rx="1" ry="1" /></g>
<g transform="translate(22.540768 122.527774) rotate(177.796344) scale(12.510944 27.503830)"><ellipse fill="#3b3a16" fill-opacity="0.501961" cx="0" cy="0" rx="1" ry="1" /></g>
<g transform="translate(219.980158 57.272083) rotate(313.513059) scale(29.069049 5.418097)"><ellipse fill="#b1b6bb" fill-opacity="0.501961" cx="0" cy="0" rx="1" ry="1" /></g>
<g transform="translate(74.909785 78.179628) rotate(298.957930) scale(7.777190 27.142816)"><ellipse fill="#567291" fill-opacity="0.501961" cx="0" cy="0" rx="1" ry="1" /></g>
<g transform="translate(217.111342 130.467826) rotate(255.839971) scale(14.409272 3.463371)"><ellipse fill="#575a26" fill-opacity="0.501961" cx="0" cy="0" rx="1" ry="1" /></g>
<g transform="translate(13.576081 3.814606) rotate(103.542358) scale(9.651552 17.871724)"><ellipse fill="#0b436e" fill-opacity="0.501961" cx="0" cy="0" rx="1" ry="1" /></g>
<g transform="translate(103.803653 30.949426) rotate(117.523888) scale(5.247874 6.573133)"><ellipse fill="#d9ccc0" fill-opacity="0.501961" cx="0" cy="0" rx="1" ry="1" /></g>
<g transform="translate(208.572056 138.346933) rotate(276.117342) scale(15.894109 5.251671)"><ellipse fill="#060b00" fill-opacity="0.501961" cx="0" cy="0" rx="1" ry="1" /></g>
<g transform="translate(83.153277 66.907317) rotate(293.767642) scale(5.359043 19.731835)"><ellipse fill="#e1dfdb" fill-opacity="0.501961" cx="0" cy="0" rx="1" ry="1" /></g>
<g transform="translate(151.385294 94.992720) rotate(355.416039) scale(12.464822 1.671165)"><ellipse fill="#c3cdd8" fill-opacity="0.501961" cx="0" cy="0" rx="1" ry="1" /></g>
<g transform="translate(37.610677 40.691081) rotate(36.570497) scale(4.932402 17.135601)"><ellipse fill="#989fa4" fill-opacity="0.501961" cx="0" cy="0" rx="1" ry="1" /></g>
<g transform="translate(197.165741 48.679753) rotate(97.123854) scale(5.418456 45.479760)"><ellipse fill="#9fc0cf" fill-opacity="0.501961" cx="0" cy="0" rx="1" ry="1" /></g>
<g transform="translate(103.972209 145.356439) rotate(120.281265) scale(8.851078 3.811302)"><ellipse fill="#000a06" fill-opacity="0.501961" cx="0" cy="0" rx="1" ry="1" /></g>
<g transform="translate(250.815469 156.371218) rotate(167.179237) scale(1.883893 15.862981)"><ellipse fill="#6b6c20" fill-opacity="0.501961" cx="0" cy="0" rx="1" ry="1" /></g>
<g transform="translate(5.562560 96.888881) rotate(209.396635) scale(8.063099 15.481053)"><ellipse fill="#000000" fill-opacity="0.501961" cx="0" cy="0" rx="1" ry="1" /></g>
<g transform="translate(204.766870 10.775419) rotate(89.365049) scale(3.943175 32.596503)"><ellipse fill="#91979b" fill-opacity="0.501961" cx="0" cy="0" rx="1" ry="1" /></g>
<g transform="translate(42.029596 142.029292) rotate(266.337947) scale(28.921503 7.722984)"><ellipse fill="#615f1f" fill-opacity="0.501961" cx="0" cy="0" rx="1" ry="1" /></g>
<g transform="translate(133.349649 74.631607) rotate(175.515499) scale(24.907488 10.581483)"><ellipse fill="#80abc6" fill-opacity="0.501961" cx="0" cy="0" rx="1" ry="1" /></g>
<g transform="translate(60.577242 65.857997) rotate(46.413205) scale(18.881207 3.539863)"><ellipse fill="#2a4969" fill-opacity="0.501961" cx="0" cy="0" rx="1" ry="1" /></g>
<g transform="translate(172.784920 80.971342) rotate(163.315986) scale(27.439311 10.944800)"><ellipse fill="#2c76a9" fill-opacity="0.501961" cx="0" cy="0" rx="1" ry="1" /></g>
<g transform="translate(244.795612 169.000000) rotate(251.338975) scale(16.608624 3.755297)"><ellipse fill="#000600" fill-opacity="0.501961" cx="0" cy="0" rx="1" ry="1" /></g>
<g transform="translate(229.644610 57.433596) rotate(166.184927) scale(18.143382 3.001523)"><ellipse fill="#e6d9ce" fill-opacity="0.501961" cx="0" cy="0" rx="1" ry="1" /></g>
<g transform="translate(141.273510 104.746476) rotate(261.538710) scale(1.000000 23.803594)"><ellipse fill="#252831" fill-opacity="0.501961" cx="0" cy="0" rx="1" ry="1" /></g>
<g transform="translate(35.151138 64.866116) rotate(32.499632) scale(5.924368 2.156400)"><ellipse fill="#b79993" fill-opacity="0.501961" cx="0" cy="0" rx="1" ry="1" /></g>
<g transform="translate(72.076786 128.448672) rotate(92.757714) scale(4.504426 6.300470)"><ellipse fill="#87813d" fill-opacity="0.501961" cx="0" cy="0" rx="1" ry="1" /></g>
<g transform="translate(246.900603 45.540924) rotate(81.113911) scale(3.117898 27.672199)"><ellipse fill="#858891" fill-opacity="0.501961" cx="0" cy="0" rx="1" ry="1" /></g>
<g transform="translate(18.194476 74.911186) rotate(8.691901) scale(5.323648 26.985422)"><ellipse fill="#242604" fill-opacity="0.501961" cx="0" cy="0" rx="1" ry="1" /></g>
<g transform="translate(0.000000 28.080357) rotate(232.237031) scale(9.283920 21.594229)"><ellipse fill="#9b938b" fill-opacity="0.501961" cx="0" cy="0" rx="1" ry="1" /></g>
<g transform="translate(169.156416 158.562119) rotate(85.735059) scale(28.267614 2.738428)"><ellipse fill="#0c1205" fill-opacity="0.501961" cx="0" cy="0" rx="1" ry="1" /></g>
<g transform="translate(81.523546 155.882273) rotate(91.300929) scale(5.792870 29.696672)"><ellipse fill="#847f4e" fill-opacity="0.501961" cx="0" cy="0" rx="1" ry="1" /></g>
<g transform="translate(119.287715 57.167384) rotate(92.252759) scale(10.158675 32.971420)"><ellipse fill="#c8cfce" fill-opacity="0.501961" cx="0" cy="0" rx="1" ry="1" /></g>
<g transform="translate(60.106507 141.669433) rotate(132.842820) scale(9.372864 13.427049)"><ellipse fill="#333412" fill-opacity="0.501961" cx="0" cy="0" rx="1" ry="1" /></g>
<g transform="translate(66.708459 40.589522) rotate(208.581821) scale(8.717113 13.825287)"><ellipse fill="#9fabaf" fill-opacity="0.501961" cx="0" cy="0" rx="1" ry="1" /></g>
<g transform="translate(47.093358 24.338865) rotate(35.077156) scale(23.926329 4.620562)"><ellipse fill="#6a7a83" fill-opacity="0.501961" cx="0" cy="0" rx="1" ry="1" /></g>
<g transform="translate(248.301079 92.861261) rotate(177.640799) scale(72.435926 4.781957)"><ellipse fill="#414b4c" fill-opacity="0.501961" cx="0" cy="0" rx="1" ry="1" /></g>
<g transform="translate(253.918446 67.204622) rotate(155.267674) scale(3.681385 1.000000)"><ellipse fill="#f2e5d8" fill-opacity="0.501961" cx="0" cy="0" rx="1" ry="1" /></g>
<g transform="translate(213.305726 169.000000) rotate(113.503090) scale(60.104377 4.916769)"><ellipse fill="#000500" fill-opacity="0.501961" cx="0" cy="0" rx="1" ry="1" /></g>
<g transform="translate(196.952420 66.032589) rotate(178.330867) scale(16.614544 3.938216)"><ellipse fill="#60809d" fill-opacity="0.501961" cx="0" cy="0" rx="1" ry="1" /></g>
<g transform="translate(144.935896 96.982374) rotate(254.239434) scale(4.728391 14.287751)"><ellipse fill="#94abbf" fill-opacity="0.501961" cx="0" cy="0" rx="1" ry="1" /></g>
<g transform="translate(0.276172 49.150771) rotate(162.120732) scale(7.142609 4.874616)"><ellipse fill="#91a1b5" fill-opacity="0.501961" cx="0" cy="0" rx="1" ry="1" /></g>
<g transform="translate(230.207856 66.521341) rotate(153.982331) scale(14.522945 4.876504)"><ellipse fill="#768ba3" fill-opacity="0.501961" cx="0" cy="0" rx="1" ry="1" /></g>
<g transform="translate(189.459297 136.814715) rotate(7.944833) scale(3.088846 10.274146)"><ellipse fill="#6f6e50" fill-opacity="0.501961" cx="0" cy="0" rx="1" ry="1" /></g>
<g transform="translate(95.397054 39.714016) rotate(92.396940) scale(2.548844 31.974583)"><ellipse fill="#60a8ca" fill-opacity="0.501961" cx="0" cy="0" rx="1" ry="1" /></g>
</g>
</svg>